<svg width="24" height="24" viewBox="0 0 24 24" fill="none" xmlns="http://www.w3.org/2000/svg">
<rect y="24" width="24" height="24" rx="12" transform="rotate(-90 0 24)" fill="#7E8799"/>
<path fill-rule="evenodd" clip-rule="evenodd" d="M19.4717 10.9737H7.77506L12.3176 6.19209C12.4117 6.09464 12.4865 5.97854 12.5378 5.85049C12.589 5.72244 12.6157 5.58497 12.6162 5.44602C12.6168 5.30706 12.5912 5.16937 12.5409 5.04089C12.4906 4.9124 12.4167 4.79566 12.3233 4.69741C12.23 4.59915 12.1191 4.52132 11.997 4.46841C11.875 4.41549 11.7442 4.38854 11.6122 4.38911C11.4802 4.38967 11.3496 4.41775 11.2279 4.4717C11.1063 4.52566 10.996 4.60444 10.9034 4.70349L4.6534 11.2824C4.6509 11.2842 4.65006 11.2877 4.64756 11.2903C4.51047 11.4376 4.41748 11.624 4.38015 11.8264C4.34281 12.0289 4.36278 12.2384 4.43756 12.4289C4.48756 12.5544 4.5584 12.6658 4.64756 12.7623L4.6534 12.771L10.9034 19.35C11.0992 19.5552 11.3551 19.657 11.6101 19.657C11.8078 19.657 12.0011 19.5953 12.1655 19.4797C12.3299 19.3641 12.4581 19.1997 12.5338 19.0075C12.6095 18.8152 12.6294 18.6036 12.5909 18.3995C12.5524 18.1953 12.4573 18.0078 12.3176 17.8605L7.7759 13.0789H19.4726C19.7378 13.0789 19.9921 12.968 20.1797 12.7706C20.3672 12.5732 20.4726 12.3055 20.4726 12.0263C20.4726 11.7471 20.3672 11.4794 20.1797 11.282C19.9921 11.0846 19.7378 10.9737 19.4726 10.9737" fill="white"/>
</svg>
