<svg width="20" height="22" viewBox="0 0 20 22" fill="none" xmlns="http://www.w3.org/2000/svg">
<path fill-rule="evenodd" clip-rule="evenodd" d="M17.4717 9.97367H5.77506L10.3176 5.19209C10.4117 5.09464 10.4865 4.97854 10.5378 4.85049C10.589 4.72244 10.6157 4.58497 10.6162 4.44602C10.6168 4.30706 10.5912 4.16937 10.5409 4.04089C10.4906 3.9124 10.4167 3.79566 10.3233 3.69741C10.23 3.59915 10.1191 3.52132 9.99704 3.46841C9.87498 3.41549 9.74417 3.38854 9.61217 3.38911C9.48016 3.38967 9.34957 3.41775 9.22792 3.4717C9.10627 3.52566 8.99598 3.60444 8.9034 3.70349L2.6534 10.2824C2.6509 10.2842 2.65006 10.2877 2.64756 10.2903C2.51047 10.4376 2.41748 10.624 2.38015 10.8264C2.34281 11.0289 2.36278 11.2384 2.43756 11.4289C2.48756 11.5544 2.5584 11.6658 2.64756 11.7623L2.6534 11.771L8.9034 18.35C9.09923 18.5552 9.35506 18.657 9.61006 18.657C9.80779 18.657 10.0011 18.5953 10.1655 18.4797C10.3299 18.3641 10.4581 18.1997 10.5338 18.0075C10.6095 17.8152 10.6294 17.6036 10.5909 17.3995C10.5524 17.1953 10.4573 17.0078 10.3176 16.8605L5.7759 12.0789H17.4726C17.7378 12.0789 17.9921 11.968 18.1797 11.7706C18.3672 11.5732 18.4726 11.3055 18.4726 11.0263C18.4726 10.7471 18.3672 10.4794 18.1797 10.282C17.9921 10.0846 17.7378 9.97367 17.4726 9.97367" fill="#5C6988"/>
</svg>
