<svg width="21" height="21" viewBox="0 0 21 21" fill="none" xmlns="http://www.w3.org/2000/svg">
<rect x="0.5" y="0.837891" width="20" height="20" rx="10" fill="#FFE6CE"/>
<g clip-path="url(#clip0_2108_11000)">
<path fill-rule="evenodd" clip-rule="evenodd" d="M5.94524 15.9663C5.94524 16.121 6.0067 16.2694 6.11609 16.3788C6.22549 16.4882 6.37386 16.5496 6.52857 16.5496H14.4718C14.6265 16.5496 14.7749 16.4882 14.8843 16.3788C14.9937 16.2694 15.0552 16.121 15.0552 15.9663V15.2371H5.94524V15.9663ZM15.1444 9.3478L12.8986 10.5086L11.0121 7.60655C10.9566 7.5212 10.8807 7.45106 10.7913 7.40251C10.7018 7.35395 10.6017 7.32852 10.4999 7.32852C10.3981 7.32852 10.298 7.35395 10.2085 7.40251C10.1191 7.45106 10.0432 7.5212 9.98774 7.60655L8.10124 10.5086L5.8554 9.3478C5.75306 9.29499 5.63789 9.27216 5.52314 9.28194C5.40839 9.29172 5.29874 9.33372 5.20682 9.40309C5.11489 9.47246 5.04443 9.56638 5.00355 9.67405C4.96267 9.78171 4.95303 9.89873 4.97574 10.0116L5.85657 14.3621H15.1432L16.0241 10.0116C16.1262 9.5088 15.6 9.11213 15.1444 9.3478ZM10.4999 6.83655C10.7428 6.83655 10.9757 6.74006 11.1475 6.56831C11.3192 6.39656 11.4157 6.16361 11.4157 5.92072C11.4157 5.67782 11.3192 5.44488 11.1475 5.27312C10.9757 5.10137 10.7428 5.00488 10.4999 5.00488C10.257 5.00488 10.0241 5.10137 9.85231 5.27312C9.68056 5.44488 9.58407 5.67782 9.58407 5.92072C9.58407 6.16361 9.68056 6.39656 9.85231 6.56831C10.0241 6.74006 10.257 6.83655 10.4999 6.83655ZM16.5841 7.32888C16.3412 7.32888 16.1082 7.42537 15.9365 7.59712C15.7647 7.76888 15.6682 8.00182 15.6682 8.24472C15.6682 8.48761 15.7647 8.72056 15.9365 8.89231C16.1082 9.06406 16.3412 9.16055 16.5841 9.16055C16.827 9.16055 17.0599 9.06406 17.2317 8.89231C17.4034 8.72056 17.4999 8.48761 17.4999 8.24472C17.4999 8.00182 17.4034 7.76888 17.2317 7.59712C17.0599 7.42537 16.827 7.32888 16.5841 7.32888ZM5.33215 8.24472C5.33215 8.00182 5.23567 7.76888 5.06391 7.59712C4.89216 7.42537 4.65922 7.32888 4.41632 7.32888C4.17343 7.32888 3.94048 7.42537 3.76873 7.59712C3.59698 7.76888 3.50049 8.00182 3.50049 8.24472C3.50049 8.48761 3.59698 8.72056 3.76873 8.89231C3.94048 9.06406 4.17343 9.16055 4.41632 9.16055C4.65922 9.16055 4.89216 9.06406 5.06391 8.89231C5.23567 8.72056 5.33215 8.48761 5.33215 8.24472Z" fill="#FF993C"/>
</g>
<defs>
<clipPath id="clip0_2108_11000">
<rect width="14" height="14" fill="white" transform="translate(3.5 3.83789)"/>
</clipPath>
</defs>
</svg>
