<svg width="18" height="18" viewBox="0 0 18 18" fill="none" xmlns="http://www.w3.org/2000/svg">
<path fill-rule="evenodd" clip-rule="evenodd" d="M5.09559 13.4947C5.09559 13.6287 5.14827 13.7572 5.24204 13.852C5.33581 13.9468 5.46299 14 5.59561 14H12.4044C12.537 14 12.6642 13.9468 12.758 13.852C12.8517 13.7572 12.9044 13.6287 12.9044 13.4947V12.8631H5.09559V13.4947ZM12.9809 7.76181L11.0558 8.76732L9.43877 6.25355C9.39124 6.17962 9.32619 6.11887 9.24952 6.07681C9.17285 6.03475 9.08699 6.01272 8.99975 6.01272C8.91251 6.01272 8.82665 6.03475 8.74998 6.07681C8.67331 6.11887 8.60826 6.17962 8.56073 6.25355L6.94366 8.76732L5.01858 7.76181C4.93086 7.71607 4.83213 7.69629 4.73377 7.70476C4.63541 7.71324 4.54142 7.74961 4.46263 7.8097C4.38383 7.86979 4.32343 7.95115 4.28839 8.0444C4.25335 8.13766 4.24508 8.23903 4.26455 8.33682L5.01958 12.1052H12.9799L13.7349 8.33682C13.8225 7.90127 13.3714 7.55768 12.9809 7.76181ZM8.99975 5.58658C9.20795 5.58658 9.40763 5.503 9.55485 5.35423C9.70207 5.20546 9.78478 5.00368 9.78478 4.79329C9.78478 4.5829 9.70207 4.38112 9.55485 4.23235C9.40763 4.08358 9.20795 4 8.99975 4C8.79155 4 8.59187 4.08358 8.44465 4.23235C8.29743 4.38112 8.21472 4.5829 8.21472 4.79329C8.21472 5.00368 8.29743 5.20546 8.44465 5.35423C8.59187 5.503 8.79155 5.58658 8.99975 5.58658ZM14.215 6.01304C14.0068 6.01304 13.8071 6.09661 13.6599 6.24539C13.5126 6.39416 13.4299 6.59593 13.4299 6.80633C13.4299 7.01672 13.5126 7.2185 13.6599 7.36727C13.8071 7.51604 14.0068 7.59962 14.215 7.59962C14.4232 7.59962 14.6228 7.51604 14.7701 7.36727C14.9173 7.2185 15 7.01672 15 6.80633C15 6.59593 14.9173 6.39416 14.7701 6.24539C14.6228 6.09661 14.4232 6.01304 14.215 6.01304ZM4.57007 6.80633C4.57007 6.59593 4.48736 6.39416 4.34013 6.24539C4.19291 6.09661 3.99324 6.01304 3.78503 6.01304C3.57683 6.01304 3.37715 6.09661 3.22993 6.24539C3.08271 6.39416 3 6.59593 3 6.80633C3 7.01672 3.08271 7.2185 3.22993 7.36727C3.37715 7.51604 3.57683 7.59962 3.78503 7.59962C3.99324 7.59962 4.19291 7.51604 4.34013 7.36727C4.48736 7.2185 4.57007 7.01672 4.57007 6.80633Z" fill="#7E8799"/>
</svg>
