<svg width="4" height="18" viewBox="0 0 4 18" fill="none" xmlns="http://www.w3.org/2000/svg">
<path fill-rule="evenodd" clip-rule="evenodd" d="M-2.39293e-05 2.22998C4.18857e-05 1.96727 0.0518514 1.70715 0.152447 1.46446C0.253042 1.22177 0.400453 1.00128 0.586263 0.81556C0.772073 0.629843 0.992643 0.482542 1.23538 0.382068C1.47812 0.281594 1.73827 0.229915 2.00098 0.22998C2.26369 0.230046 2.52381 0.281856 2.7665 0.382451C3.00918 0.483046 3.22968 0.630457 3.4154 0.816267C3.60111 1.00208 3.74841 1.22265 3.84889 1.46538C3.94936 1.70812 4.00104 1.96827 4.00098 2.23098C4.00084 2.76155 3.78995 3.27033 3.41469 3.6454C3.03943 4.02047 2.53054 4.23111 1.99998 4.23098C1.46941 4.23085 0.960628 4.01995 0.585555 3.64469C0.210482 3.26943 -0.000156513 2.76055 -2.39293e-05 2.22998ZM-2.42253e-05 9.00098C-2.42021e-05 8.47055 0.21069 7.96184 0.585763 7.58677C0.960835 7.21169 1.46954 7.00098 1.99998 7.00098C2.53041 7.00098 3.03912 7.21169 3.41419 7.58677C3.78926 7.96184 3.99998 8.47055 3.99998 9.00098C3.99998 9.53141 3.78926 10.0401 3.41419 10.4152C3.03912 10.7903 2.53041 11.001 1.99998 11.001C1.46954 11.001 0.960835 10.7903 0.585763 10.4152C0.21069 10.0401 -2.42484e-05 9.53141 -2.42253e-05 9.00098ZM-2.45212e-05 15.771C4.12938e-05 15.5083 0.0518509 15.2481 0.152446 15.0055C0.253041 14.7628 0.400452 14.5423 0.586262 14.3566C0.772072 14.1708 0.992643 14.0235 1.23538 13.9231C1.47812 13.8226 1.73827 13.7709 2.00098 13.771C2.26369 13.771 2.52381 13.8229 2.7665 13.9235C3.00918 14.024 3.22968 14.1715 3.4154 14.3573C3.60111 14.5431 3.74841 14.7636 3.84889 15.0064C3.94936 15.2491 4.00104 15.5093 4.00098 15.772C4.00084 16.3025 3.78995 16.8113 3.41469 17.1864C3.03943 17.5615 2.53054 17.7721 1.99998 17.772C1.46941 17.7718 0.960627 17.561 0.585554 17.1857C0.210482 16.8104 -0.000157105 16.3015 -2.45212e-05 15.771Z" fill="#7E8799"/>
</svg>
