<svg width="24" height="24" viewBox="0 0 24 24" fill="none" xmlns="http://www.w3.org/2000/svg">
<path fill-rule="evenodd" clip-rule="evenodd" d="M9.99998 5.23047C10 4.96776 10.0519 4.70764 10.1524 4.46495C10.253 4.22226 10.4005 4.00177 10.5863 3.81605C10.7721 3.63033 10.9926 3.48303 11.2354 3.38256C11.4781 3.28208 11.7383 3.2304 12.001 3.23047C12.2637 3.23053 12.5238 3.28234 12.7665 3.38294C13.0092 3.48353 13.2297 3.63095 13.4154 3.81676C13.6011 4.00257 13.7484 4.22314 13.8489 4.46587C13.9494 4.70861 14.001 4.96876 14.001 5.23147C14.0008 5.76203 13.79 6.27082 13.4147 6.64589C13.0394 7.02096 12.5305 7.2316 12 7.23147C11.4694 7.23134 10.9606 7.02044 10.5856 6.64518C10.2105 6.26992 9.99984 5.76103 9.99998 5.23047ZM9.99998 12.0015C9.99998 11.471 10.2107 10.9623 10.5858 10.5873C10.9608 10.2122 11.4695 10.0015 12 10.0015C12.5304 10.0015 13.0391 10.2122 13.4142 10.5873C13.7893 10.9623 14 11.471 14 12.0015C14 12.5319 13.7893 13.0406 13.4142 13.4157C13.0391 13.7908 12.5304 14.0015 12 14.0015C11.4695 14.0015 10.9608 13.7908 10.5858 13.4157C10.2107 13.0406 9.99998 12.5319 9.99998 12.0015ZM9.99998 18.7715C10 18.5088 10.0519 18.2486 10.1524 18.0059C10.253 17.7633 10.4005 17.5428 10.5863 17.357C10.7721 17.1713 10.9926 17.024 11.2354 16.9236C11.4781 16.8231 11.7383 16.7714 12.001 16.7715C12.2637 16.7715 12.5238 16.8233 12.7665 16.9239C13.0092 17.0245 13.2297 17.1719 13.4154 17.3578C13.6011 17.5436 13.7484 17.7641 13.8489 18.0069C13.9494 18.2496 14.001 18.5098 14.001 18.7725C14.0008 19.303 13.7899 19.8118 13.4147 20.1869C13.0394 20.562 12.5305 20.7726 12 20.7725C11.4694 20.7723 10.9606 20.5614 10.5856 20.1862C10.2105 19.8109 9.99984 19.302 9.99998 18.7715Z" fill="#7E8799"/>
</svg>
