<svg width="77" height="76" viewBox="0 0 77 76" fill="none" xmlns="http://www.w3.org/2000/svg">
<path d="M0.46875 12C0.46875 5.37258 5.84133 0 12.4688 0H64.4688C71.0962 0 76.4688 5.37258 76.4688 12V64C76.4688 70.6274 71.0962 76 64.4688 76H12.4688C5.84133 76 0.46875 70.6274 0.46875 64V12Z" fill="#C3DBFF"/>
<circle cx="39.0515" cy="37.9999" r="24.7625" fill="#7BB0FF"/>
<path d="M51.0541 58.0002C51.6541 58.8672 52.8294 59.1259 53.6936 58.5218C56.1569 56.8 58.2934 54.6918 60.016 52.2773C61.716 49.8945 62.9858 47.2516 63.7805 44.4515C64.0771 43.4064 63.3954 42.3613 62.336 42.1208L40.9237 37.2593C39.1451 36.8555 37.7984 38.8482 38.8364 40.3479L51.0541 58.0002Z" fill="url(#paint0_linear_750_23395)"/>
<path d="M61.5583 48.0234C62.5715 48.4632 63.757 48.0003 64.1211 46.9575C65.369 43.384 65.8589 39.5818 65.5505 35.7946C65.188 31.3415 63.7329 27.0465 61.3142 23.29C58.8955 19.5335 55.5878 16.4314 51.684 14.2583C48.364 12.4102 44.6999 11.2827 40.9304 10.9397C39.8304 10.8396 38.9184 11.7272 38.8995 12.8317L38.4914 36.6631C38.4775 37.4721 38.9524 38.2098 39.6946 38.532L61.5583 48.0234Z" fill="url(#paint1_linear_750_23395)"/>
<defs>
<linearGradient id="paint0_linear_750_23395" x1="63.5879" y1="21.0067" x2="38.6321" y2="41.0412" gradientUnits="userSpaceOnUse">
<stop offset="0.105061" stop-color="#5C9EFF"/>
<stop offset="0.95" stop-color="#6C93FF"/>
</linearGradient>
<linearGradient id="paint1_linear_750_23395" x1="51.8194" y1="10.3416" x2="41.4363" y2="40.0351" gradientUnits="userSpaceOnUse">
<stop offset="0.105061" stop-color="#8DACFF"/>
<stop offset="1" stop-color="#3D6EF3"/>
</linearGradient>
</defs>
</svg>
