<svg width="76" height="76" viewBox="0 0 76 76" fill="none" xmlns="http://www.w3.org/2000/svg">
<path d="M0 12C0 5.37258 5.37258 0 12 0H64C70.6274 0 76 5.37258 76 12V64C76 70.6274 70.6274 76 64 76H12C5.37258 76 0 70.6274 0 64V12Z" fill="#FFE7DF"/>
<rect x="23.1904" y="14.5505" width="37.0199" height="45.1365" rx="4" fill="#F0B09E"/>
<path d="M27.098 17.3113L19.7192 20.1545C18.5615 20.6006 17.7979 21.7133 17.7979 22.9539V59.3696C17.7979 61.0265 19.141 62.3696 20.7978 62.3696H45.6998C46.2971 62.3696 46.8807 62.1913 47.376 61.8576L55.0672 56.676C55.8948 56.1184 56.391 55.1858 56.391 54.1879V20.1107C56.391 18.4539 55.0478 17.1107 53.391 17.1107H28.1767C27.8079 17.1107 27.4422 17.1787 27.098 17.3113Z" fill="white"/>
<rect x="15.7891" y="18.946" width="37.0199" height="45.1365" rx="4" fill="url(#paint0_linear_749_24649)"/>
<path d="M53.5283 21.4689L54.1394 20.8833V55.5968L53.5283 56.0368V21.4689Z" fill="#F1F1F1"/>
<path d="M54.4521 20.4873L55.0632 19.8879V29.2866L54.4521 29.9026V20.4873Z" fill="#F1F1F1"/>
<path d="M48.8213 25.7158H55.5781V29.082H48.8213V25.7158Z" fill="#E57575"/>
<path d="M48.3066 29.9026H55.0634V33.2688H48.3066V29.9026Z" fill="#4AA8FF"/>
<defs>
<linearGradient id="paint0_linear_749_24649" x1="34.299" y1="18.946" x2="34.299" y2="64.0826" gradientUnits="userSpaceOnUse">
<stop stop-color="#FCB19C"/>
<stop offset="1" stop-color="#F89478"/>
</linearGradient>
</defs>
</svg>
