<svg width="76" height="76" viewBox="0 0 76 76" fill="none" xmlns="http://www.w3.org/2000/svg">
<path d="M0 12C0 5.37258 5.37258 0 12 0H64C70.6274 0 76 5.37258 76 12V64C76 70.6274 70.6274 76 64 76H12C5.37258 76 0 70.6274 0 64V12Z" fill="#FFE8F7"/>
<path d="M12.336 25.1369C12.0468 21.6401 14.8068 18.6423 18.3156 18.6423H56.3015C59.8103 18.6423 62.5703 21.6401 62.2811 25.1369L60.4605 47.1499C60.2031 50.2612 57.6028 52.6553 54.4809 52.6553H20.1362C17.0143 52.6553 14.414 50.2612 14.1566 47.1499L12.336 25.1369Z" fill="#E6AED2"/>
<path d="M18.9302 18.1733C18.7698 17.0375 19.6516 16.0225 20.7986 16.0225H26.1211C27.2682 16.0225 28.15 17.0375 27.9895 18.1733C27.8581 19.1042 27.0613 19.7964 26.1211 19.7964H20.7986C19.8585 19.7964 19.0617 19.1042 18.9302 18.1733Z" fill="#E6AED2"/>
<path d="M11.7988 21.8933H64.3002L61.4054 56.1741H14.6937L11.7988 21.8933Z" fill="url(#paint0_linear_749_25824)"/>
<path d="M13.8315 24.0388H64.9413L62.1232 58.3196H16.6497L13.8315 24.0388Z" fill="url(#paint1_linear_749_25824)"/>
<path d="M11.0591 25.168H63.5605L60.6656 59.4488H13.954L11.0591 25.168Z" fill="url(#paint2_linear_749_25824)"/>
<path d="M13.8315 26.9739H64.9413L62.1232 61.2547H16.6497L13.8315 26.9739Z" fill="url(#paint3_linear_749_25824)"/>
<path d="M12.336 34.5976C12.0468 31.1008 14.8068 28.103 18.3156 28.103H57.7835C61.2923 28.103 64.0523 31.1008 63.7631 34.5976L61.8607 57.5985C61.6034 60.7099 59.0031 63.104 55.8811 63.104H20.2179C17.096 63.104 14.4957 60.7099 14.2384 57.5985L12.336 34.5976Z" fill="url(#paint4_linear_749_25824)"/>
<defs>
<linearGradient id="paint0_linear_749_25824" x1="38.0495" y1="21.8933" x2="38.0495" y2="56.1741" gradientUnits="userSpaceOnUse">
<stop stop-color="white"/>
<stop offset="0.13347" stop-color="#CECECE"/>
</linearGradient>
<linearGradient id="paint1_linear_749_25824" x1="39.3864" y1="24.0388" x2="39.3864" y2="58.3196" gradientUnits="userSpaceOnUse">
<stop stop-color="white"/>
<stop offset="0.13347" stop-color="#C1C1C1"/>
</linearGradient>
<linearGradient id="paint2_linear_749_25824" x1="37.3098" y1="25.168" x2="37.3098" y2="59.4488" gradientUnits="userSpaceOnUse">
<stop stop-color="white"/>
<stop offset="0.13347" stop-color="#F3F3F3"/>
</linearGradient>
<linearGradient id="paint3_linear_749_25824" x1="39.3864" y1="26.9739" x2="39.3864" y2="61.2547" gradientUnits="userSpaceOnUse">
<stop stop-color="white"/>
<stop offset="0.0001" stop-color="#F3F3F3"/>
</linearGradient>
<linearGradient id="paint4_linear_749_25824" x1="38.0495" y1="28.103" x2="38.0495" y2="63.104" gradientUnits="userSpaceOnUse">
<stop stop-color="#FFD0EF"/>
<stop offset="1" stop-color="#FFAEE3"/>
</linearGradient>
</defs>
</svg>
