<svg width="267" height="141" viewBox="0 0 267 141" fill="none" xmlns="http://www.w3.org/2000/svg">
<ellipse cx="133.5" cy="95.7002" rx="126.5" ry="30.5" fill="#F6F7F9"/>
<path d="M212.763 100.805L201.818 104.105C201.818 104.105 201.818 104.105 200.837 104.589L72.2102 136.976L69.26 137.604C68.0812 137.854 66.8522 137.56 65.9146 136.803L63.5052 134.858C62.8736 134.348 63.0808 133.337 63.862 133.117L65.4342 132.674C65.4129 132.593 64.9625 132.27 64.9437 132.19L64.4531 131.705C63.8474 129.13 64.2061 126.449 66.3969 125.926L66.4156 125.922L193.694 97.5104C194.17 95.8852 195.437 95 195.437 95L210.649 95.8738C213.499 95.221 219.671 94.3827 219.97 96.3585C220.423 97.8178 215.613 100.152 212.763 100.805Z" fill="#E7EBEF"/>
<path d="M198.823 101.958L214.032 98.4442C216.891 97.7806 221.856 92.9618 221.401 91.4785C221.101 89.4702 214.693 88.2634 211.833 88.927L196.651 92.544C196.651 92.544 193.744 94.6016 195.069 98.2064C196.393 101.811 198.823 101.958 198.823 101.958Z" fill="#ADB3C1"/>
<path d="M63.6663 122.493L198.621 91.9711C200.833 91.4568 202.193 93.2398 202.803 95.865C203.412 98.4903 203.041 100.973 200.829 101.488L66.0781 134.558C63.8654 135.073 61.9396 132.005 61.3296 129.37L61.3691 129.529C60.7597 126.904 61.4625 122.998 63.6751 122.483L63.6663 122.493Z" fill="white"/>
<path d="M92.7336 17.9997C92.7336 17.9997 63.0411 11.7801 65.4143 42.6786C67.8322 74.103 82.9908 74.8918 82.9908 74.8918" stroke="#EEEFF2" stroke-width="14" stroke-linecap="round" stroke-linejoin="round"/>
<path d="M157.328 17.6807V16.9601H82.9927V17.6807C82.9927 17.6807 76.8326 36.5177 82.9927 86.7254H83.0197C84.7514 95.6833 99.6509 99.323 120.169 99.323C140.688 99.323 155.226 95.8201 157.319 86.7254C160.818 39.5006 157.319 17.6807 157.319 17.6807H157.328Z" fill="white"/>
<path d="M120.188 23.7272C140.864 23.7272 157.625 20.6542 157.625 16.8636C157.625 13.0729 140.864 10 120.188 10C99.5114 10 82.75 13.0729 82.75 16.8636C82.75 20.6542 99.5114 23.7272 120.188 23.7272Z" fill="white"/>
<path d="M119.876 23.7274C137.393 23.7274 151.594 21.1666 151.594 18.0077C151.594 14.8489 137.393 12.2881 119.876 12.2881C102.359 12.2881 88.158 14.8489 88.158 18.0077C88.158 21.1666 102.359 23.7274 119.876 23.7274Z" fill="#A4AAB7"/>
</svg>
