<svg width="24" height="24" viewBox="0 0 24 24" fill="none" xmlns="http://www.w3.org/2000/svg">
<path d="M21.4736 14.1053C21.6266 14.0375 21.7551 13.9265 21.8062 13.7672C21.8914 13.5016 22 12.9724 22 12.0004C22 11.0283 21.8914 10.4992 21.8062 10.2336C21.7551 10.0742 21.6266 9.96322 21.4736 9.89547C20.8307 9.61112 18.9655 8.82507 17.2941 8.50037C17.2941 8.50037 17 8.80037 17 12.0004C17 15.2004 17.2941 15.5004 17.2941 15.5004C18.9655 15.1757 20.8307 14.3896 21.4736 14.1053Z" fill="#2A62F4"/>
<path d="M10.4323 20.8873C10.2393 21.686 9.4495 22.1644 8.68185 21.9478L6.54665 21.3454C5.6825 21.1016 5.25 20.1008 5.6506 19.2719L7.71505 15L11.5 16.4685L10.4323 20.8873Z" fill="#2A62F4"/>
<path d="M3.73887 16.1117C3.08848 16.0216 2.52923 15.6113 2.40619 14.949C2.28941 14.3204 2.18164 13.3693 2.18164 12C2.18164 10.6307 2.28941 9.67967 2.40619 9.05102C2.52923 8.38876 3.08848 7.97844 3.73887 7.88835C6.15779 7.55322 12.2697 6.46721 16.5934 3.63308C17.6739 2.92479 19.018 3.2721 19.2092 4.57414C19.4341 6.10488 19.6362 8.46421 19.6362 12C19.6362 15.5358 19.4341 17.8951 19.2092 19.4259C19.018 20.7279 17.6739 21.0752 16.5933 20.367C12.2697 17.5328 6.15779 16.4468 3.73887 16.1117Z" fill="#9AB5FE"/>
<path d="M2.43426 14.9773C2.57268 15.6459 3.20184 16.0602 3.93353 16.1511C4.35037 16.203 4.86471 16.2726 5.45437 16.3636V7.63635C4.86471 7.7274 4.35037 7.79701 3.93353 7.84885C3.20184 7.9398 2.57268 8.35406 2.43426 9.02268C2.30288 9.65737 2.18164 10.6175 2.18164 12C2.18164 13.3824 2.30288 14.3427 2.43426 14.9773Z" fill="#2A62F4"/>
</svg>
