<svg width="24" height="24" viewBox="0 0 24 24" fill="none" xmlns="http://www.w3.org/2000/svg">
<path d="M21 11.5V16.6C21 18.4778 19.4778 20 17.6 20H7.4C5.52223 20 4 18.4778 4 16.6V6.4C4 4.52223 5.52223 3 7.4 3H12.5M15.6334 4.71934C15.6334 4.71934 15.6334 5.93509 16.8492 7.15084C18.0649 8.36659 19.2807 8.36659 19.2807 8.36659M10.0815 14.8911L12.6346 14.5264C13.0028 14.4738 13.3441 14.3032 13.6072 14.0401L20.4964 7.15084C21.1679 6.4794 21.1679 5.39078 20.4964 4.71933L19.2807 3.50358C18.6092 2.83214 17.5206 2.83214 16.8492 3.50358L9.9599 10.3928C9.69684 10.6559 9.52621 10.9972 9.4736 11.3654L9.10887 13.9185C9.02782 14.4859 9.51412 14.9722 10.0815 14.8911Z" stroke="#7E8799" stroke-width="2" stroke-linecap="round"/>
</svg>
