<svg width="18" height="18" viewBox="0 0 18 18" fill="none" xmlns="http://www.w3.org/2000/svg">
<path fill-rule="evenodd" clip-rule="evenodd" d="M9.41857 4.69347L3.37724 10.7348L2.55324 13.8081L2.01124 15.8328C1.99618 15.8894 1.99626 15.9489 2.01145 16.0054C2.02665 16.0619 2.05644 16.1135 2.09783 16.1549C2.13922 16.1963 2.19076 16.2261 2.24728 16.2412C2.30381 16.2564 2.36334 16.2565 2.4199 16.2415L4.44324 15.6988L7.51724 14.8748H7.5179L13.5592 8.83347L9.41924 4.69347H9.41857ZM16.0572 5.39347L12.8599 2.19547C12.798 2.1335 12.7246 2.08435 12.6437 2.0508C12.5628 2.01726 12.4761 2 12.3886 2C12.301 2 12.2143 2.01726 12.1334 2.0508C12.0526 2.08435 11.9791 2.1335 11.9172 2.19547L10.2672 3.8448L14.4079 7.98547L16.0572 6.33547C16.1192 6.27361 16.1684 6.20014 16.2019 6.11926C16.2354 6.03839 16.2527 5.95169 16.2527 5.86413C16.2527 5.77658 16.2354 5.68988 16.2019 5.60901C16.1684 5.52813 16.1192 5.45466 16.0572 5.3928" fill="#7E8799"/>
</svg>
