<svg width="18" height="18" viewBox="0 0 18 18" fill="none" xmlns="http://www.w3.org/2000/svg">
<g clip-path="url(#clip0_232_4059)">
<path d="M8.09415 4.30348C8.19344 3.07781 9.98832 3.07781 10.0876 4.30348L10.2425 6.21474C10.2919 6.82556 10.8742 7.24859 11.4704 7.1069L13.336 6.66354C14.5323 6.37923 15.087 8.08626 13.952 8.55945L12.1821 9.29731C11.6165 9.53313 11.3941 10.2176 11.7131 10.7409L12.7112 12.3781C13.3513 13.4281 11.8992 14.4831 11.0985 13.5498L9.84979 12.0946C9.45073 11.6295 8.73103 11.6295 8.33197 12.0946L7.08329 13.5498C6.28253 14.4831 4.83044 13.4281 5.47054 12.3781L6.46869 10.7409C6.78769 10.2176 6.56529 9.53313 5.99965 9.29731L4.22979 8.55945C3.09479 8.08626 3.64944 6.37923 4.8458 6.66354L6.71136 7.1069C7.30758 7.24859 7.88983 6.82556 7.93931 6.21474L8.09415 4.30348Z" fill="#7E8799"/>
</g>
<defs>
<clipPath id="clip0_232_4059">
<rect width="18" height="18" fill="white"/>
</clipPath>
</defs>
</svg>
