<svg width="18" height="19" viewBox="0 0 18 19" fill="none" xmlns="http://www.w3.org/2000/svg">
<g clip-path="url(#clip0_1254_8210)">
<path d="M8.09415 4.86989C8.19344 3.64422 9.98832 3.64422 10.0876 4.86989L10.2425 6.78115C10.2919 7.39197 10.8742 7.81499 11.4704 7.6733L13.336 7.22995C14.5323 6.94563 15.087 8.65266 13.952 9.12585L12.1821 9.86372C11.6165 10.0995 11.3941 10.784 11.7131 11.3073L12.7112 12.9445C13.3513 13.9945 11.8992 15.0495 11.0985 14.1162L9.84979 12.661C9.45073 12.1959 8.73103 12.1959 8.33197 12.661L7.08329 14.1162C6.28253 15.0495 4.83044 13.9945 5.47054 12.9445L6.46869 11.3073C6.78769 10.784 6.56529 10.0995 5.99965 9.86372L4.22979 9.12585C3.09479 8.65266 3.64944 6.94563 4.8458 7.22995L6.71136 7.6733C7.30758 7.81499 7.88983 7.39197 7.93931 6.78115L8.09415 4.86989Z" fill="#FF993C"/>
</g>
<defs>
<clipPath id="clip0_1254_8210">
<rect width="18" height="18" fill="white" transform="translate(0 0.566406)"/>
</clipPath>
</defs>
</svg>
