<svg width="20" height="20" viewBox="0 0 20 20" fill="none" xmlns="http://www.w3.org/2000/svg">
<rect x="8" y="3" width="4" height="13" fill="#FF993C"/>
<path fill-rule="evenodd" clip-rule="evenodd" d="M10 14.6527C9.71067 14.6527 9.4332 14.5378 9.22861 14.3332C9.02403 14.1286 8.90909 13.8511 8.90909 13.5618C8.90909 13.2725 9.02403 12.995 9.22861 12.7904C9.4332 12.5858 9.71067 12.4709 10 12.4709C10.2893 12.4709 10.5668 12.5858 10.7714 12.7904C10.976 12.995 11.0909 13.2725 11.0909 13.5618C11.0909 13.8511 10.976 14.1286 10.7714 14.3332C10.5668 14.5378 10.2893 14.6527 10 14.6527ZM9.09091 5.71182C9.09091 5.47071 9.18669 5.23948 9.35718 5.06899C9.52766 4.89851 9.75889 4.80273 10 4.80273C10.2411 4.80273 10.4723 4.89851 10.6428 5.06899C10.8133 5.23948 10.9091 5.47071 10.9091 5.71182V10.2573C10.9091 10.4984 10.8133 10.7296 10.6428 10.9001C10.4723 11.0706 10.2411 11.1664 10 11.1664C9.75889 11.1664 9.52766 11.0706 9.35718 10.9001C9.18669 10.7296 9.09091 10.4984 9.09091 10.2573V5.71182ZM10 0C4.47727 0 0 4.47727 0 10C0 15.5236 4.47727 20 10 20C15.5227 20 20 15.5236 20 10C20 4.47727 15.5227 0 10 0Z" fill="white"/>
</svg>
