<?xml version="1.0" encoding="utf-8"?><svg xmlns="http://www.w3.org/2000/svg" xmlns:xlink="http://www.w3.org/1999/xlink"><symbol fill="none" viewBox="0 0 20 22" id="arrow_back" xmlns="http://www.w3.org/2000/svg"><path fill-rule="evenodd" clip-rule="evenodd" d="M17.472 9.974H5.775l4.543-4.782a1.101 1.101 0 0 0 .006-1.495.997.997 0 0 0-.327-.229.956.956 0 0 0-.77.004 1 1 0 0 0-.324.231l-6.25 6.58c-.002.001-.003.005-.005.007-.138.148-.23.334-.268.536a1.074 1.074 0 0 0 .267.936l.006.009 6.25 6.579a.965.965 0 0 0 1.262.13c.165-.116.293-.28.369-.473.075-.192.095-.403.057-.608a1.071 1.071 0 0 0-.273-.539L5.776 12.08h11.697c.265 0 .52-.111.707-.308.187-.198.293-.466.293-.745 0-.279-.106-.547-.293-.744a.975.975 0 0 0-.707-.308" fill="#5C6988"/></symbol><symbol fill="none" viewBox="0 0 24 24" id="arrow_back_circle" xmlns="http://www.w3.org/2000/svg"><rect y="24" width="24" height="24" rx="12" transform="rotate(-90 0 24)" fill="#7E8799"/><path fill-rule="evenodd" clip-rule="evenodd" d="M19.472 10.974H7.775l4.543-4.782a1.101 1.101 0 0 0 .006-1.495.997.997 0 0 0-.327-.229.956.956 0 0 0-.77.004 1 1 0 0 0-.324.231l-6.25 6.58c-.002.001-.003.005-.005.007-.138.148-.23.334-.268.536a1.074 1.074 0 0 0 .267.936l.006.009 6.25 6.579a.965.965 0 0 0 1.262.13c.165-.116.293-.28.369-.473.075-.192.095-.403.057-.608a1.071 1.071 0 0 0-.273-.539L7.776 13.08h11.697c.265 0 .52-.111.707-.308.187-.198.293-.466.293-.745 0-.279-.106-.547-.293-.744a.975.975 0 0 0-.707-.308" fill="#fff"/></symbol><symbol fill="none" viewBox="0 0 24 24" id="arrow_left" xmlns="http://www.w3.org/2000/svg"><path d="M13.5 19 6 11.5 13.5 4" stroke="#7E8799" stroke-width="2" stroke-linecap="round" stroke-linejoin="round"/></symbol><symbol fill="none" viewBox="0 0 18 18" id="arrow_right" xmlns="http://www.w3.org/2000/svg"><path d="m7 13 4.5-4.5L7 4" stroke="#7E8799" stroke-width="1.5" stroke-linecap="round" stroke-linejoin="round"/></symbol><symbol fill="none" viewBox="0 0 20 20" id="check" xmlns="http://www.w3.org/2000/svg"><g clip-path="url(#ea)"><path fill-rule="evenodd" clip-rule="evenodd" d="M20 10c0 5.5-4.5 10-10 10S0 15.5 0 10 4.5 0 10 0s10 4.5 10 10Z" fill="#fff"/><path d="M5.9 9.7 9 12.8l5.1-5.05" stroke="#223ECF" stroke-width="1.6" stroke-linecap="round" stroke-linejoin="round"/></g><defs><clipPath id="ea"><path fill="#fff" d="M0 0h20v20H0z"/></clipPath></defs></symbol><symbol fill="none" viewBox="0 0 24 24" id="check_circle" xmlns="http://www.w3.org/2000/svg"><path fill-rule="evenodd" clip-rule="evenodd" d="m17.207 10.215-5.583 5.584a1.004 1.004 0 0 1-1.415 0l-3.416-3.416a1 1 0 1 1 1.414-1.414l2.709 2.709 4.877-4.877a1 1 0 1 1 1.414 1.414ZM12 1C5.925 1 1 5.925 1 12s4.925 11 11 11 11-4.925 11-11S18.075 1 12 1Z" fill="#7E8799"/></symbol><symbol fill="none" viewBox="0 0 18 18" id="crown" xmlns="http://www.w3.org/2000/svg"><rect width="18" height="18" rx="9" fill="#fff"/><path fill-rule="evenodd" clip-rule="evenodd" d="M5.096 13.495c0 .134.052.262.146.357.094.095.221.148.354.148h6.808c.133 0 .26-.053.354-.148a.508.508 0 0 0 .146-.357v-.632H5.096v.632Zm7.885-5.733-1.925 1.005-1.617-2.513a.526.526 0 0 0-.44-.241.52.52 0 0 0-.438.24L6.944 8.768 5.019 7.762a.52.52 0 0 0-.73.282.535.535 0 0 0-.024.293l.755 3.768h7.96l.755-3.768a.525.525 0 0 0-.754-.575ZM9 5.587a.78.78 0 0 0 .555-.233.798.798 0 0 0 0-1.122.78.78 0 0 0-1.11 0 .798.798 0 0 0 0 1.122.78.78 0 0 0 .555.233Zm5.215.426a.78.78 0 0 0-.555.232.797.797 0 0 0 0 1.122.78.78 0 0 0 1.11 0 .798.798 0 0 0 0-1.122.781.781 0 0 0-.555-.232Zm-9.645.793a.798.798 0 0 0-.23-.56.78.78 0 0 0-1.11 0 .798.798 0 0 0 0 1.121.78.78 0 0 0 1.11 0 .798.798 0 0 0 .23-.56Z" fill="#FF993C"/></symbol><symbol fill="none" viewBox="0 0 24 24" id="hamburger_menu" xmlns="http://www.w3.org/2000/svg"><path d="M4 6h16.5M4 12h16.5M4 18h16.5" stroke="#7E8799" stroke-width="2" stroke-linecap="round"/></symbol><symbol fill="none" viewBox="0 0 24 24" id="kebab_menu" xmlns="http://www.w3.org/2000/svg"><path fill-rule="evenodd" clip-rule="evenodd" d="M10 5.23a2.001 2.001 0 1 1 4.003.002A2.001 2.001 0 0 1 10 5.23Zm0 6.771a2 2 0 1 1 4 0 2 2 0 0 1-4 0Zm0 6.77a2.002 2.002 0 0 1 3.415-1.413A2 2 0 1 1 10 18.77Z" fill="#7E8799"/></symbol><symbol fill="none" viewBox="0 0 24 24" id="mega_phone" xmlns="http://www.w3.org/2000/svg"><path d="M21.474 14.105a.574.574 0 0 0 .332-.338c.085-.265.194-.795.194-1.767 0-.972-.109-1.5-.194-1.766a.573.573 0 0 0-.332-.339c-.643-.284-2.509-1.07-4.18-1.395 0 0-.294.3-.294 3.5s.294 3.5.294 3.5c1.671-.324 3.537-1.11 4.18-1.395ZM10.432 20.887c-.193.799-.982 1.277-1.75 1.06l-2.135-.602c-.864-.243-1.297-1.244-.896-2.073L7.715 15l3.785 1.468-1.068 4.42Z" fill="#2A62F4"/><path d="M3.739 16.112c-.65-.09-1.21-.5-1.333-1.163-.117-.629-.224-1.58-.224-2.949 0-1.37.107-2.32.224-2.949.123-.662.682-1.073 1.333-1.163 2.419-.335 8.53-1.42 12.854-4.255 1.08-.708 2.425-.36 2.616.941.225 1.53.427 3.89.427 7.426s-.202 5.895-.427 7.426c-.191 1.302-1.535 1.65-2.616.941-4.323-2.834-10.435-3.92-12.854-4.255Z" fill="#9AB5FE"/><path d="M2.434 14.977c.139.669.768 1.083 1.5 1.174.416.052.93.122 1.52.213V7.636c-.59.091-1.104.161-1.52.213-.732.09-1.361.505-1.5 1.174-.131.634-.252 1.595-.252 2.977s.12 2.343.252 2.977Z" fill="#2A62F4"/></symbol><symbol fill="none" viewBox="0 0 24 24" id="memo" xmlns="http://www.w3.org/2000/svg"><path d="M21 11.5v5.1a3.4 3.4 0 0 1-3.4 3.4H7.4A3.4 3.4 0 0 1 4 16.6V6.4A3.4 3.4 0 0 1 7.4 3h5.1m3.133 1.72s0 1.215 1.216 2.43c1.216 1.217 2.432 1.217 2.432 1.217m-9.2 6.524 2.554-.365a1.72 1.72 0 0 0 .972-.486l6.89-6.89a1.72 1.72 0 0 0 0-2.43L19.28 3.503a1.72 1.72 0 0 0-2.432 0l-6.89 6.889a1.72 1.72 0 0 0-.485.972l-.365 2.553a.86.86 0 0 0 .973.973Z" stroke="#7E8799" stroke-width="2" stroke-linecap="round"/></symbol><symbol fill="none" viewBox="0 0 18 18" id="pencil" xmlns="http://www.w3.org/2000/svg"><path fill-rule="evenodd" clip-rule="evenodd" d="m9.419 4.693-6.042 6.042-.824 3.073-.542 2.025a.334.334 0 0 0 .409.408l2.023-.542 3.074-.824 6.042-6.042-4.14-4.14Zm6.638.7L12.86 2.195a.666.666 0 0 0-.943 0l-1.65 1.65 4.14 4.14 1.65-1.65a.665.665 0 0 0 0-.942" fill="#7E8799"/></symbol><symbol fill="none" viewBox="0 0 12 13" id="plus" xmlns="http://www.w3.org/2000/svg"><path d="M1.164 6.662h10M6.164 11.662v-10" stroke="#5784FD" stroke-width="1.5" stroke-linecap="round" stroke-linejoin="round"/></symbol><symbol fill="none" viewBox="0 0 24 24" id="share" xmlns="http://www.w3.org/2000/svg"><path d="M5 14v4a2 2 0 0 0 2 2h10a2 2 0 0 0 2-2v-4M12 15V5M7 9l5-5 5 5" stroke="#7E8799" stroke-width="2" stroke-linecap="round" stroke-linejoin="round"/></symbol><symbol fill="none" viewBox="0 0 18 18" id="star" xmlns="http://www.w3.org/2000/svg"><g clip-path="url(#oa)"><path d="M8.094 4.303c.1-1.225 1.894-1.225 1.994 0l.155 1.912a1 1 0 0 0 1.227.892l1.866-.443c1.196-.285 1.751 1.422.616 1.895l-1.77.738a1 1 0 0 0-.469 1.444l.998 1.637c.64 1.05-.812 2.105-1.613 1.172L9.85 12.095a1 1 0 0 0-1.518 0L7.083 13.55c-.8.933-2.253-.122-1.612-1.172l.998-1.637a1 1 0 0 0-.47-1.444L4.23 8.56c-1.134-.473-.58-2.18.617-1.895l1.865.443a1 1 0 0 0 1.228-.892l.155-1.912Z" fill="#7E8799"/></g><defs><clipPath id="oa"><path fill="#fff" d="M0 0h18v18H0z"/></clipPath></defs></symbol><symbol fill="none" viewBox="0 0 20 20" id="warning" xmlns="http://www.w3.org/2000/svg"><path fill="#FF993C" d="M8 3h4v13H8z"/><path fill-rule="evenodd" clip-rule="evenodd" d="M10 14.653a1.09 1.09 0 1 1 0-2.182 1.09 1.09 0 0 1 0 2.182Zm-.91-8.941a.91.91 0 1 1 1.82 0v4.545a.909.909 0 0 1-1.82 0V5.712ZM10 0C4.477 0 0 4.477 0 10c0 5.524 4.477 10 10 10s10-4.476 10-10c0-5.523-4.477-10-10-10Z" fill="#fff"/></symbol><symbol fill="none" viewBox="0 0 24 24" id="x" xmlns="http://www.w3.org/2000/svg"><path d="m18.75 5.25-13.5 13.5M18.75 18.75 5.25 5.25" stroke="#7E8799" stroke-width="2" stroke-linecap="round" stroke-linejoin="round"/></symbol><symbol fill="none" viewBox="0 0 24 24" id="x_circle" xmlns="http://www.w3.org/2000/svg"><path fill-rule="evenodd" clip-rule="evenodd" d="M16.207 14.793a1 1 0 0 1-1.414 1.414L12 13.414l-2.793 2.793a.997.997 0 0 1-1.631-.324 1 1 0 0 1 .217-1.09L10.586 12 7.793 9.207a1 1 0 0 1 1.414-1.414L12 10.586l2.793-2.793a1 1 0 1 1 1.414 1.414L13.414 12l2.793 2.793ZM12 1C5.925 1 1 5.925 1 12s4.925 11 11 11 11-4.925 11-11S18.075 1 12 1Z" fill="#7E8799"/></symbol></svg>