<?xml version="1.0" encoding="utf-8"?><svg xmlns="http://www.w3.org/2000/svg" xmlns:xlink="http://www.w3.org/1999/xlink"><symbol fill="none" viewBox="0 0 20 22" id="arrow_back" xmlns="http://www.w3.org/2000/svg"><path fill-rule="evenodd" clip-rule="evenodd" d="M17.472 9.974H5.775l4.543-4.782a1.101 1.101 0 0 0 .006-1.495.997.997 0 0 0-.327-.229.956.956 0 0 0-.77.004 1 1 0 0 0-.324.231l-6.25 6.58c-.002.001-.003.005-.005.007-.138.148-.23.334-.268.536a1.074 1.074 0 0 0 .267.936l.006.009 6.25 6.579a.965.965 0 0 0 1.262.13c.165-.116.293-.28.369-.473.075-.192.095-.403.057-.608a1.071 1.071 0 0 0-.273-.539L5.776 12.08h11.697c.265 0 .52-.111.707-.308.187-.198.293-.466.293-.745 0-.279-.106-.547-.293-.744a.975.975 0 0 0-.707-.308" fill="#5C6988"/></symbol><symbol fill="none" viewBox="0 0 24 24" id="arrow_back_circle" xmlns="http://www.w3.org/2000/svg"><rect y="24" width="24" height="24" rx="12" transform="rotate(-90 0 24)" fill="#7E8799"/><path fill-rule="evenodd" clip-rule="evenodd" d="M19.472 10.974H7.775l4.543-4.782a1.101 1.101 0 0 0 .006-1.495.997.997 0 0 0-.327-.229.956.956 0 0 0-.77.004 1 1 0 0 0-.324.231l-6.25 6.58c-.002.001-.003.005-.005.007-.138.148-.23.334-.268.536a1.074 1.074 0 0 0 .267.936l.006.009 6.25 6.579a.965.965 0 0 0 1.262.13c.165-.116.293-.28.369-.473.075-.192.095-.403.057-.608a1.071 1.071 0 0 0-.273-.539L7.776 13.08h11.697c.265 0 .52-.111.707-.308.187-.198.293-.466.293-.745 0-.279-.106-.547-.293-.744a.975.975 0 0 0-.707-.308" fill="#fff"/></symbol><symbol fill="none" viewBox="0 0 24 24" id="arrow_left" xmlns="http://www.w3.org/2000/svg"><path d="M13.5 19 6 11.5 13.5 4" stroke="#7E8799" stroke-width="2" stroke-linecap="round" stroke-linejoin="round"/></symbol><symbol fill="none" viewBox="0 0 18 18" id="arrow_right" xmlns="http://www.w3.org/2000/svg"><path d="m7 13 4.5-4.5L7 4" stroke="#7E8799" stroke-width="1.5" stroke-linecap="round" stroke-linejoin="round"/></symbol><symbol fill="none" viewBox="0 0 20 20" id="check" xmlns="http://www.w3.org/2000/svg"><g clip-path="url(#aea)"><path fill-rule="evenodd" clip-rule="evenodd" d="M20 10c0 5.5-4.5 10-10 10S0 15.5 0 10 4.5 0 10 0s10 4.5 10 10Z" fill="#fff"/><path d="M5.9 9.7 9 12.8l5.1-5.05" stroke="#223ECF" stroke-width="1.6" stroke-linecap="round" stroke-linejoin="round"/></g><defs><clipPath id="aea"><path fill="#fff" d="M0 0h20v20H0z"/></clipPath></defs></symbol><symbol fill="none" viewBox="0 0 24 24" id="check_circle" xmlns="http://www.w3.org/2000/svg"><path fill-rule="evenodd" clip-rule="evenodd" d="m17.207 10.215-5.583 5.584a1.004 1.004 0 0 1-1.415 0l-3.416-3.416a1 1 0 1 1 1.414-1.414l2.709 2.709 4.877-4.877a1 1 0 1 1 1.414 1.414ZM12 1C5.925 1 1 5.925 1 12s4.925 11 11 11 11-4.925 11-11S18.075 1 12 1Z" fill="#7E8799"/></symbol><symbol fill="none" viewBox="0 0 18 18" id="crown" xmlns="http://www.w3.org/2000/svg"><rect width="18" height="18" rx="9" fill="#fff"/><path fill-rule="evenodd" clip-rule="evenodd" d="M5.096 13.495c0 .134.052.262.146.357.094.095.221.148.354.148h6.808c.133 0 .26-.053.354-.148a.508.508 0 0 0 .146-.357v-.632H5.096v.632Zm7.885-5.733-1.925 1.005-1.617-2.513a.526.526 0 0 0-.44-.241.52.52 0 0 0-.438.24L6.944 8.768 5.019 7.762a.52.52 0 0 0-.73.282.535.535 0 0 0-.024.293l.755 3.768h7.96l.755-3.768a.525.525 0 0 0-.754-.575ZM9 5.587a.78.78 0 0 0 .555-.233.798.798 0 0 0 0-1.122.78.78 0 0 0-1.11 0 .798.798 0 0 0 0 1.122.78.78 0 0 0 .555.233Zm5.215.426a.78.78 0 0 0-.555.232.797.797 0 0 0 0 1.122.78.78 0 0 0 1.11 0 .798.798 0 0 0 0-1.122.781.781 0 0 0-.555-.232Zm-9.645.793a.798.798 0 0 0-.23-.56.78.78 0 0 0-1.11 0 .798.798 0 0 0 0 1.121.78.78 0 0 0 1.11 0 .798.798 0 0 0 .23-.56Z" fill="#FF993C"/></symbol><symbol fill="none" viewBox="0 0 10 18" id="date_picker_arrow_left" xmlns="http://www.w3.org/2000/svg"><path d="M0 9c0 .342.127.635.4.889l7.598 7.441c.215.215.488.332.81.332.645 0 1.163-.508 1.163-1.162 0-.322-.137-.605-.352-.83L2.773 9 9.62 2.33a1.21 1.21 0 0 0 .352-.83C9.97.846 9.453.338 8.809.338c-.323 0-.596.117-.81.332L.399 8.102C.127 8.365 0 8.658 0 9Z" fill="#646E81"/></symbol><symbol fill="none" viewBox="0 0 10 18" id="date_picker_arrow_right" xmlns="http://www.w3.org/2000/svg"><path d="M10 9a1.272 1.272 0 0 0-.4-.898L2.002.67a1.129 1.129 0 0 0-.81-.332C.536.338.028.846.028 1.5c0 .313.127.605.352.83L7.217 9 .38 15.67a1.152 1.152 0 0 0-.352.83c0 .654.508 1.162 1.162 1.162.313 0 .586-.117.81-.332L9.601 9.89c.273-.254.4-.547.4-.889Z" fill="#646E81"/></symbol><symbol fill="none" viewBox="0 0 4 18" id="dots_mono" xmlns="http://www.w3.org/2000/svg"><path fill-rule="evenodd" clip-rule="evenodd" d="M0 2.23a2 2 0 1 1 4.001.001A2 2 0 0 1 0 2.23Zm0 6.771a2 2 0 1 1 4 0 2 2 0 0 1-4 0Zm0 6.77a2 2 0 1 1 4 0 2 2 0 0 1-4 0Z" fill="#7E8799"/></symbol><symbol fill="none" viewBox="0 0 24 24" id="hamburger_menu" xmlns="http://www.w3.org/2000/svg"><path d="M4 6h16.5M4 12h16.5M4 18h16.5" stroke="#7E8799" stroke-width="2" stroke-linecap="round"/></symbol><symbol fill="none" viewBox="0 0 375 414" id="join_complete" xmlns="http://www.w3.org/2000/svg"><path d="m65.465 278.249 102.699-116.451c3.754-4.257 10.109-4.981 14.688-1.673l124.741 90.109-242.128 28.015Z" fill="#C7CCD6"/><path d="m65.527 278.242 242.078-28.01-112.036 91.29-130.042-63.28Z" fill="#7E8799"/><path d="M-.139 0h375.046v138.508L292.26 276.872a3.001 3.001 0 0 1-2.171 1.434l-208.146 28.31a4 4 0 0 1-4.109-2.159L.001 150.444-.14 0Z" fill="url(#bha)"/><path d="M263.759 200.217 94.934 219.751c-5.486.635-9.419 5.597-8.784 11.083l14.649 126.61c.635 5.486 5.597 9.419 11.083 8.784l168.825-19.534c5.487-.635 9.419-5.597 8.785-11.083l-14.65-126.61c-.635-5.486-5.597-9.419-11.083-8.784Z" fill="#fff"/><path d="M65.416 279.28 322.63 382.722l.31 2.711L80.72 413.459 65.416 279.28Z" fill="#F6F7F9"/><path d="m307.477 250.046-113.492 80.686 128.668 52.141-15.176-132.827Z" fill="#E7EBEF"/><path d="M142.145 257.953c-.351-1.424-1.495-2.216-3.065-2.025-2.068.23-3.155 1.958-2.839 4.694.328 2.832 1.798 4.157 3.816 3.923 1.514-.175 2.467-1.111 2.56-2.518l3.339-.367c.028 2.534-1.818 5.362-5.62 5.802-3.803.44-6.937-1.832-7.471-6.45-.536-4.637 2.056-7.552 5.801-7.985 3.366-.389 6.08 1.233 6.816 4.54l-3.337.386Zm18.063-.104c.545 4.626-2.075 7.554-5.839 7.989-3.784.438-6.977-1.837-7.51-6.445-.536-4.637 2.056-7.552 5.839-7.99 3.764-.435 6.983 1.807 7.51 6.446Zm-9.973 1.154c.324 2.793 1.75 4.162 3.797 3.925 2.057-.238 3.133-1.896 2.8-4.689-.314-2.795-1.741-4.173-3.797-3.925-2.048.227-3.123 1.895-2.8 4.689Zm22.436-9.714 1.626 14.047-2.814.325-6.658-7.585-.097.011.954 8.246-3.298.381-1.625-14.047 2.852-.33 6.6 7.593.116-.014-.954-8.245 3.298-.382Zm11.304 3.332c-.456-1.136-1.488-1.725-2.874-1.555-2.067.23-3.195 1.953-2.88 4.679.318 2.745 1.752 4.182 3.877 3.936 1.872-.217 2.806-1.318 2.679-2.847l-2.833.328-.281-2.425 6.015-.696.213 1.843c.433 3.745-1.877 6.293-5.476 6.709-4.016.465-7.051-1.976-7.565-6.419-.531-4.588 2.102-7.577 5.837-8.009 3.24-.375 5.961 1.306 6.644 4.068l-3.356.388Zm5.99 8.902-1.625-14.047 5.742-.664c3.163-.366 5.32 1.203 5.642 4.066.234 1.939-.499 3.42-1.969 4.307l3.56 5.025-3.628.42-3.14-4.533-1.843.213.559 4.831-3.298.382Zm2.434-7.851 1.746-.202c1.563-.171 2.317-.878 2.164-2.197-.152-1.32-1.053-1.884-2.615-1.703l-1.746.202.451 3.9Zm12.588 6.113-3.57.413 3.148-14.599 4.385-.508 6.378 13.497-3.55.411-1.299-2.897-4.889.566-.603 3.117Zm1.107-5.732 3.298-.381-2.175-4.861-.116.014-1.007 5.228Zm6.588-6.66-.312-2.697 11.816-1.367.312 2.696-4.269.494 1.313 11.35-3.278.38-1.314-11.35-4.268.494Zm20.625-.893c-.205-1.008-1.032-1.532-2.381-1.376-1.338.155-1.96.817-1.877 1.614.081.875.984 1.203 2.277 1.329l1.256.149c2.775.279 4.502 1.445 4.773 3.695.297 2.659-1.584 4.499-5.075 4.913-3.503.395-5.945-.915-6.377-4.139l3.182-.368c.234 1.349 1.334 1.93 2.838 1.756 1.396-.162 2.16-.869 2.075-1.774-.114-.812-.881-1.156-2.473-1.326l-1.515-.178c-2.481-.284-4.104-1.315-4.349-3.43-.312-2.608 1.786-4.61 4.968-4.979 3.24-.375 5.53 1.15 5.86 3.746l-3.182.368Zm7.827-5.132.838 9.792-2.774.321-1.42-9.725 3.356-.388Zm-1.99 12.872c-.13-.948.585-1.817 1.546-1.929.931-.107 1.846.573 1.965 1.523.104.981-.63 1.862-1.561 1.97-.96.111-1.857-.582-1.95-1.564Z" fill="#5784FD"/><linearGradient id="bha" x1="169.256" y1="364.371" x2="168.228" y2=".434" gradientUnits="userSpaceOnUse"><stop stop-color="#E6ECFF"/><stop offset="1" stop-color="#E4EAFC" stop-opacity="0"/></linearGradient></symbol><symbol fill="none" viewBox="0 0 22 20" id="kakao" xmlns="http://www.w3.org/2000/svg"><path d="M10.95.484C5.29.484.702 4.125.702 8.615c0 2.903 1.92 5.454 4.804 6.89-.156.545-1.01 3.504-1.043 3.736 0 0-.02.174.093.241.076.04.164.044.244.016.322-.045 3.743-2.46 4.335-2.876.602.084 1.208.125 1.815.124 5.66 0 10.248-3.64 10.248-8.13 0-4.492-4.588-8.132-10.248-8.132Z" fill="#000"/></symbol><symbol fill="none" viewBox="0 0 24 24" id="kebab_menu" xmlns="http://www.w3.org/2000/svg"><path fill-rule="evenodd" clip-rule="evenodd" d="M10 5.23a2.001 2.001 0 1 1 4.003.002A2.001 2.001 0 0 1 10 5.23Zm0 6.771a2 2 0 1 1 4 0 2 2 0 0 1-4 0Zm0 6.77a2.002 2.002 0 0 1 3.415-1.413A2 2 0 1 1 10 18.77Z" fill="#7E8799"/></symbol><symbol fill="none" viewBox="0 0 76 76" id="meeting_room_thumbnail_1" xmlns="http://www.w3.org/2000/svg"><path d="M0 12C0 5.373 5.373 0 12 0h52c6.627 0 12 5.373 12 12v52c0 6.627-5.373 12-12 12H12C5.373 76 0 70.627 0 64V12Z" fill="#FFDFFE"/><path fill-rule="evenodd" clip-rule="evenodd" d="M38 55.182c14.166 0 25.65-8.017 25.65-17.907S52.166 19.368 38 19.368c-14.167 0-25.651 8.017-25.651 17.907 0 4.548 2.429 8.7 6.431 11.86l-4.594 7.634c-.5.832.358 1.817 1.25 1.436l11.247-4.808a.995.995 0 0 0 .06-.027c3.398 1.16 7.218 1.812 11.256 1.812Z" fill="url(#ana)"/><g filter="url(#anb)"><circle cx="28.84" cy="37.482" r="3.186" fill="#fff"/></g><g filter="url(#anc)"><circle cx="38" cy="37.482" r="3.186" fill="#fff"/></g><g filter="url(#and)"><circle cx="47.16" cy="37.482" r="3.186" fill="#fff"/></g><defs><filter id="anb" x="24.654" y="33.296" width="11.372" height="10.372" filterUnits="userSpaceOnUse" color-interpolation-filters="sRGB"><feFlood flood-opacity="0" result="BackgroundImageFix"/><feColorMatrix in="SourceAlpha" values="0 0 0 0 0 0 0 0 0 0 0 0 0 0 0 0 0 0 127 0" result="hardAlpha"/><feOffset dx="2" dy="1"/><feGaussianBlur stdDeviation="1"/><feComposite in2="hardAlpha" operator="out"/><feColorMatrix values="0 0 0 0 0.957553 0 0 0 0 0.529247 0 0 0 0 0.724555 0 0 0 1 0"/><feBlend in2="BackgroundImageFix" result="effect1_dropShadow_750_16006"/><feBlend in="SourceGraphic" in2="effect1_dropShadow_750_16006" result="shape"/><feColorMatrix in="SourceAlpha" values="0 0 0 0 0 0 0 0 0 0 0 0 0 0 0 0 0 0 127 0" result="hardAlpha"/><feOffset dx="-1" dy="-1"/><feGaussianBlur stdDeviation="2"/><feComposite in2="hardAlpha" operator="arithmetic" k2="-1" k3="1"/><feColorMatrix values="0 0 0 0 0.755712 0 0 0 0 0.755712 0 0 0 0 0.755712 0 0 0 0.25 0"/><feBlend in2="shape" result="effect2_innerShadow_750_16006"/></filter><filter id="anc" x="33.815" y="33.296" width="11.372" height="10.372" filterUnits="userSpaceOnUse" color-interpolation-filters="sRGB"><feFlood flood-opacity="0" result="BackgroundImageFix"/><feColorMatrix in="SourceAlpha" values="0 0 0 0 0 0 0 0 0 0 0 0 0 0 0 0 0 0 127 0" result="hardAlpha"/><feOffset dx="2" dy="1"/><feGaussianBlur stdDeviation="1"/><feComposite in2="hardAlpha" operator="out"/><feColorMatrix values="0 0 0 0 0.957553 0 0 0 0 0.529247 0 0 0 0 0.724555 0 0 0 1 0"/><feBlend in2="BackgroundImageFix" result="effect1_dropShadow_750_16006"/><feBlend in="SourceGraphic" in2="effect1_dropShadow_750_16006" result="shape"/><feColorMatrix in="SourceAlpha" values="0 0 0 0 0 0 0 0 0 0 0 0 0 0 0 0 0 0 127 0" result="hardAlpha"/><feOffset dx="-1" dy="-1"/><feGaussianBlur stdDeviation="2"/><feComposite in2="hardAlpha" operator="arithmetic" k2="-1" k3="1"/><feColorMatrix values="0 0 0 0 0.755712 0 0 0 0 0.755712 0 0 0 0 0.755712 0 0 0 0.25 0"/><feBlend in2="shape" result="effect2_innerShadow_750_16006"/></filter><filter id="and" x="42.974" y="33.296" width="11.372" height="10.372" filterUnits="userSpaceOnUse" color-interpolation-filters="sRGB"><feFlood flood-opacity="0" result="BackgroundImageFix"/><feColorMatrix in="SourceAlpha" values="0 0 0 0 0 0 0 0 0 0 0 0 0 0 0 0 0 0 127 0" result="hardAlpha"/><feOffset dx="2" dy="1"/><feGaussianBlur stdDeviation="1"/><feComposite in2="hardAlpha" operator="out"/><feColorMatrix values="0 0 0 0 0.957553 0 0 0 0 0.529247 0 0 0 0 0.724555 0 0 0 1 0"/><feBlend in2="BackgroundImageFix" result="effect1_dropShadow_750_16006"/><feBlend in="SourceGraphic" in2="effect1_dropShadow_750_16006" result="shape"/><feColorMatrix in="SourceAlpha" values="0 0 0 0 0 0 0 0 0 0 0 0 0 0 0 0 0 0 127 0" result="hardAlpha"/><feOffset dx="-1" dy="-1"/><feGaussianBlur stdDeviation="2"/><feComposite in2="hardAlpha" operator="arithmetic" k2="-1" k3="1"/><feColorMatrix values="0 0 0 0 0.755712 0 0 0 0 0.755712 0 0 0 0 0.755712 0 0 0 0.25 0"/><feBlend in2="shape" result="effect2_innerShadow_750_16006"/></filter><linearGradient id="ana" x1="57.843" y1="21.605" x2="18.027" y2="59.427" gradientUnits="userSpaceOnUse"><stop stop-color="#FF7AB2"/><stop offset="1" stop-color="#FFB3EE"/></linearGradient></defs></symbol><symbol fill="none" viewBox="0 0 76 76" id="meeting_room_thumbnail_2" xmlns="http://www.w3.org/2000/svg"><path d="M0 12C0 5.373 5.373 0 12 0h52c6.627 0 12 5.373 12 12v52c0 6.627-5.373 12-12 12H12C5.373 76 0 70.627 0 64V12Z" fill="#FFE8CC"/><path fill-rule="evenodd" clip-rule="evenodd" d="M17.905 22.422c-6.774 0-12.265 5.492-12.265 12.266s5.491 12.266 12.265 12.266h3.787c1.856 4.555 6.485 9.419 16.309 8.924-2.944-1.616-6.322-5.27-6.556-8.924h26.65c6.775 0 12.266-5.492 12.266-12.266s-5.492-12.266-12.266-12.266h-40.19Z" fill="url(#aoa)"/><g filter="url(#aob)"><rect x="15.523" y="28.785" width="28.454" height="3" rx="1.5" fill="#fff"/></g><g filter="url(#aoc)"><rect x="15.523" y="35.077" width="44.955" height="3" rx="1.5" fill="#fff"/></g><defs><filter id="aob" x="13.023" y="28.285" width="33.454" height="8" filterUnits="userSpaceOnUse" color-interpolation-filters="sRGB"><feFlood flood-opacity="0" result="BackgroundImageFix"/><feColorMatrix in="SourceAlpha" values="0 0 0 0 0 0 0 0 0 0 0 0 0 0 0 0 0 0 127 0" result="hardAlpha"/><feOffset dy="2"/><feGaussianBlur stdDeviation="1.25"/><feComposite in2="hardAlpha" operator="out"/><feColorMatrix values="0 0 0 0 1 0 0 0 0 0.699008 0 0 0 0 0.355568 0 0 0 1 0"/><feBlend in2="BackgroundImageFix" result="effect1_dropShadow_749_20984"/><feBlend in="SourceGraphic" in2="effect1_dropShadow_749_20984" result="shape"/></filter><filter id="aoc" x="13.023" y="34.577" width="49.955" height="8" filterUnits="userSpaceOnUse" color-interpolation-filters="sRGB"><feFlood flood-opacity="0" result="BackgroundImageFix"/><feColorMatrix in="SourceAlpha" values="0 0 0 0 0 0 0 0 0 0 0 0 0 0 0 0 0 0 127 0" result="hardAlpha"/><feOffset dy="2"/><feGaussianBlur stdDeviation="1.25"/><feComposite in2="hardAlpha" operator="out"/><feColorMatrix values="0 0 0 0 1 0 0 0 0 0.699008 0 0 0 0 0.355568 0 0 0 1 0"/><feBlend in2="BackgroundImageFix" result="effect1_dropShadow_749_20984"/><feBlend in="SourceGraphic" in2="effect1_dropShadow_749_20984" result="shape"/></filter><linearGradient id="aoa" x1="38" y1="22.422" x2="38" y2="55.913" gradientUnits="userSpaceOnUse"><stop stop-color="#FFD3A1"/><stop offset="1" stop-color="#FFAE53"/></linearGradient></defs></symbol><symbol fill="none" viewBox="0 0 76 76" id="meeting_room_thumbnail_3" xmlns="http://www.w3.org/2000/svg"><path d="M0 12C0 5.373 5.373 0 12 0h52c6.627 0 12 5.373 12 12v52c0 6.627-5.373 12-12 12H12C5.373 76 0 70.627 0 64V12Z" fill="#DDF9D1"/><path fill-rule="evenodd" clip-rule="evenodd" d="M56.653 51.388c-6.428 7.936-17.22 14.502-35.43 13.078.306-.147.62-.294.939-.443 2.873-1.348 6.123-2.871 7.23-5.875a24.344 24.344 0 0 1-1.055-.457c-12-5.532-17.244-19.745-11.712-31.746 5.532-12 19.745-17.244 31.746-11.712 12 5.533 17.244 19.746 11.712 31.746a23.95 23.95 0 0 1-3.43 5.409Z" fill="url(#apa)"/><g filter="url(#apb)"><rect x="35.821" y="21.861" width="3.529" height="20.052" rx="1.764" transform="rotate(.667 35.821 21.86)" fill="#fff"/></g><g filter="url(#apc)"><rect x="55.746" y="42.196" width="3.529" height="22.165" rx="1.764" transform="rotate(106.691 55.746 42.196)" fill="#fff"/></g><defs><filter id="apb" x="35.308" y="21.881" width="8.322" height="25.351" filterUnits="userSpaceOnUse" color-interpolation-filters="sRGB"><feFlood flood-opacity="0" result="BackgroundImageFix"/><feColorMatrix in="SourceAlpha" values="0 0 0 0 0 0 0 0 0 0 0 0 0 0 0 0 0 0 127 0" result="hardAlpha"/><feOffset dx="2" dy="3"/><feGaussianBlur stdDeviation="1.15"/><feComposite in2="hardAlpha" operator="out"/><feColorMatrix values="0 0 0 0 0.093694 0 0 0 0 0.417427 0 0 0 0 0.184339 0 0 0 0.25 0"/><feBlend in2="BackgroundImageFix" result="effect1_dropShadow_749_20993"/><feBlend in="SourceGraphic" in2="effect1_dropShadow_749_20993" result="shape"/></filter><filter id="apc" x="33.633" y="36.262" width="25.98" height="14.182" filterUnits="userSpaceOnUse" color-interpolation-filters="sRGB"><feFlood flood-opacity="0" result="BackgroundImageFix"/><feColorMatrix in="SourceAlpha" values="0 0 0 0 0 0 0 0 0 0 0 0 0 0 0 0 0 0 127 0" result="hardAlpha"/><feOffset dx="2" dy="3"/><feGaussianBlur stdDeviation="1.15"/><feComposite in2="hardAlpha" operator="out"/><feColorMatrix values="0 0 0 0 0.093694 0 0 0 0 0.417427 0 0 0 0 0.184339 0 0 0 0.25 0"/><feBlend in2="BackgroundImageFix" result="effect1_dropShadow_749_20993"/><feBlend in="SourceGraphic" in2="effect1_dropShadow_749_20993" result="shape"/></filter><linearGradient id="apa" x1="24.514" y1="65.983" x2="48.371" y2="14.233" gradientUnits="userSpaceOnUse"><stop stop-color="#98D77C"/><stop offset="1" stop-color="#A6F583"/></linearGradient></defs></symbol><symbol fill="none" viewBox="0 0 76 76" id="meeting_room_thumbnail_4" xmlns="http://www.w3.org/2000/svg"><path d="M0 12C0 5.373 5.373 0 12 0h52c6.627 0 12 5.373 12 12v52c0 6.627-5.373 12-12 12H12C5.373 76 0 70.627 0 64V12Z" fill="#C6DFFF"/><path fill-rule="evenodd" clip-rule="evenodd" d="M19.698 16.407a6 6 0 0 0-6 6v24.7a6 6 0 0 0 6 6h14.025c.36 0 .624.37.784.692l2.597 5.238a1 1 0 0 0 1.792 0l2.597-5.238c.16-.322.425-.692.784-.692h14.025a6 6 0 0 0 6-6v-24.7a6 6 0 0 0-6-6H19.698Z" fill="url(#aqa)"/><g filter="url(#aqb)"><circle cx="28.628" cy="34.814" r="3.186" fill="#fff"/></g><g filter="url(#aqc)"><circle cx="38" cy="34.814" r="3.186" fill="#fff"/></g><g filter="url(#aqd)"><circle cx="47.372" cy="34.814" r="3.186" fill="#fff"/></g><defs><filter id="aqb" x="24.442" y="30.628" width="11.372" height="10.372" filterUnits="userSpaceOnUse" color-interpolation-filters="sRGB"><feFlood flood-opacity="0" result="BackgroundImageFix"/><feColorMatrix in="SourceAlpha" values="0 0 0 0 0 0 0 0 0 0 0 0 0 0 0 0 0 0 127 0" result="hardAlpha"/><feOffset dx="2" dy="1"/><feGaussianBlur stdDeviation="1"/><feComposite in2="hardAlpha" operator="out"/><feColorMatrix values="0 0 0 0 0.467996 0 0 0 0 0.575806 0 0 0 0 0.865692 0 0 0 1 0"/><feBlend in2="BackgroundImageFix" result="effect1_dropShadow_749_22154"/><feBlend in="SourceGraphic" in2="effect1_dropShadow_749_22154" result="shape"/><feColorMatrix in="SourceAlpha" values="0 0 0 0 0 0 0 0 0 0 0 0 0 0 0 0 0 0 127 0" result="hardAlpha"/><feOffset dx="-1" dy="-1"/><feGaussianBlur stdDeviation="2"/><feComposite in2="hardAlpha" operator="arithmetic" k2="-1" k3="1"/><feColorMatrix values="0 0 0 0 0.755712 0 0 0 0 0.755712 0 0 0 0 0.755712 0 0 0 0.25 0"/><feBlend in2="shape" result="effect2_innerShadow_749_22154"/></filter><filter id="aqc" x="33.814" y="30.628" width="11.372" height="10.372" filterUnits="userSpaceOnUse" color-interpolation-filters="sRGB"><feFlood flood-opacity="0" result="BackgroundImageFix"/><feColorMatrix in="SourceAlpha" values="0 0 0 0 0 0 0 0 0 0 0 0 0 0 0 0 0 0 127 0" result="hardAlpha"/><feOffset dx="2" dy="1"/><feGaussianBlur stdDeviation="1"/><feComposite in2="hardAlpha" operator="out"/><feColorMatrix values="0 0 0 0 0.467996 0 0 0 0 0.575806 0 0 0 0 0.865692 0 0 0 1 0"/><feBlend in2="BackgroundImageFix" result="effect1_dropShadow_749_22154"/><feBlend in="SourceGraphic" in2="effect1_dropShadow_749_22154" result="shape"/><feColorMatrix in="SourceAlpha" values="0 0 0 0 0 0 0 0 0 0 0 0 0 0 0 0 0 0 127 0" result="hardAlpha"/><feOffset dx="-1" dy="-1"/><feGaussianBlur stdDeviation="2"/><feComposite in2="hardAlpha" operator="arithmetic" k2="-1" k3="1"/><feColorMatrix values="0 0 0 0 0.755712 0 0 0 0 0.755712 0 0 0 0 0.755712 0 0 0 0.25 0"/><feBlend in2="shape" result="effect2_innerShadow_749_22154"/></filter><filter id="aqd" x="43.186" y="30.628" width="11.372" height="10.372" filterUnits="userSpaceOnUse" color-interpolation-filters="sRGB"><feFlood flood-opacity="0" result="BackgroundImageFix"/><feColorMatrix in="SourceAlpha" values="0 0 0 0 0 0 0 0 0 0 0 0 0 0 0 0 0 0 127 0" result="hardAlpha"/><feOffset dx="2" dy="1"/><feGaussianBlur stdDeviation="1"/><feComposite in2="hardAlpha" operator="out"/><feColorMatrix values="0 0 0 0 0.467996 0 0 0 0 0.575806 0 0 0 0 0.865692 0 0 0 1 0"/><feBlend in2="BackgroundImageFix" result="effect1_dropShadow_749_22154"/><feBlend in="SourceGraphic" in2="effect1_dropShadow_749_22154" result="shape"/><feColorMatrix in="SourceAlpha" values="0 0 0 0 0 0 0 0 0 0 0 0 0 0 0 0 0 0 127 0" result="hardAlpha"/><feOffset dx="-1" dy="-1"/><feGaussianBlur stdDeviation="2"/><feComposite in2="hardAlpha" operator="arithmetic" k2="-1" k3="1"/><feColorMatrix values="0 0 0 0 0.755712 0 0 0 0 0.755712 0 0 0 0 0.755712 0 0 0 0.25 0"/><feBlend in2="shape" result="effect2_innerShadow_749_22154"/></filter><linearGradient id="aqa" x1="38" y1="16.407" x2="38" y2="59.593" gradientUnits="userSpaceOnUse"><stop stop-color="#8DACFF"/><stop offset="1" stop-color="#769BFF"/></linearGradient></defs></symbol><symbol fill="none" viewBox="0 0 77 76" id="meeting_room_thumbnail_5" xmlns="http://www.w3.org/2000/svg"><path d="M.469 12c0-6.627 5.372-12 12-12h52c6.627 0 12 5.373 12 12v52c0 6.627-5.373 12-12 12h-52c-6.628 0-12-5.373-12-12V12Z" fill="#C3DBFF"/><circle cx="39.051" cy="38" r="24.762" fill="#7BB0FF"/><path d="M51.054 58c.6.867 1.775 1.126 2.64.522a26.165 26.165 0 0 0 6.322-6.245 25.408 25.408 0 0 0 3.765-7.825c.296-1.046-.386-2.09-1.445-2.331l-21.412-4.862c-1.779-.404-3.126 1.59-2.088 3.089L51.054 58Z" fill="url(#ara)"/><path d="M61.558 48.023c1.014.44 2.199-.023 2.563-1.066a27.17 27.17 0 0 0-23.19-36.017c-1.1-.1-2.013.787-2.031 1.892l-.409 23.831a2 2 0 0 0 1.204 1.869l21.863 9.491Z" fill="url(#arb)"/><defs><linearGradient id="ara" x1="63.588" y1="21.007" x2="38.632" y2="41.041" gradientUnits="userSpaceOnUse"><stop offset=".105" stop-color="#5C9EFF"/><stop offset=".95" stop-color="#6C93FF"/></linearGradient><linearGradient id="arb" x1="51.819" y1="10.342" x2="41.436" y2="40.035" gradientUnits="userSpaceOnUse"><stop offset=".105" stop-color="#8DACFF"/><stop offset="1" stop-color="#3D6EF3"/></linearGradient></defs></symbol><symbol fill="none" viewBox="0 0 76 76" id="meeting_room_thumbnail_6" xmlns="http://www.w3.org/2000/svg"><path d="M0 12C0 5.373 5.373 0 12 0h52c6.627 0 12 5.373 12 12v52c0 6.627-5.373 12-12 12H12C5.373 76 0 70.627 0 64V12Z" fill="#FFE7DF"/><rect x="23.19" y="14.55" width="37.02" height="45.136" rx="4" fill="#F0B09E"/><path d="m27.098 17.311-7.379 2.843a3 3 0 0 0-1.921 2.8V59.37a3 3 0 0 0 3 3H45.7a3 3 0 0 0 1.676-.512l7.691-5.182a3 3 0 0 0 1.324-2.488V20.11a3 3 0 0 0-3-3H28.177a3 3 0 0 0-1.079.2Z" fill="#fff"/><rect x="15.789" y="18.946" width="37.02" height="45.136" rx="4" fill="url(#asa)"/><path d="m53.528 21.469.611-.586v34.714l-.61.44V21.469ZM54.452 20.487l.611-.6v9.4l-.61.616v-9.416Z" fill="#F1F1F1"/><path d="M48.821 25.716h6.757v3.366h-6.757v-3.366Z" fill="#E57575"/><path d="M48.307 29.903h6.756v3.366h-6.756v-3.366Z" fill="#4AA8FF"/><defs><linearGradient id="asa" x1="34.299" y1="18.946" x2="34.299" y2="64.083" gradientUnits="userSpaceOnUse"><stop stop-color="#FCB19C"/><stop offset="1" stop-color="#F89478"/></linearGradient></defs></symbol><symbol fill="none" viewBox="0 0 76 76" id="meeting_room_thumbnail_7" xmlns="http://www.w3.org/2000/svg"><path d="M0 12C0 5.373 5.373 0 12 0h52c6.627 0 12 5.373 12 12v52c0 6.627-5.373 12-12 12H12C5.373 76 0 70.627 0 64V12Z" fill="#FFE8F7"/><path d="M12.336 25.137a6 6 0 0 1 5.98-6.495h37.986a6 6 0 0 1 5.98 6.495L60.46 47.15a6 6 0 0 1-5.98 5.505H20.136a6 6 0 0 1-5.98-5.505l-1.82-22.013Z" fill="#E6AED2"/><path d="M18.93 18.173a1.887 1.887 0 0 1 1.869-2.15h5.322a1.887 1.887 0 1 1 0 3.773H20.8c-.94 0-1.737-.692-1.869-1.623Z" fill="#E6AED2"/><path d="M11.799 21.893H64.3l-2.895 34.281H14.694l-2.895-34.28Z" fill="url(#ata)"/><path d="M13.832 24.039h51.11l-2.819 34.28H16.65l-2.818-34.28Z" fill="url(#atb)"/><path d="M11.06 25.168h52.5l-2.894 34.28H13.954l-2.895-34.28Z" fill="url(#atc)"/><path d="M13.832 26.974h51.11l-2.819 34.28H16.65l-2.818-34.28Z" fill="url(#atd)"/><path d="M12.336 34.598a6 6 0 0 1 5.98-6.495h39.468a6 6 0 0 1 5.98 6.495l-1.903 23a6 6 0 0 1-5.98 5.506H20.218a6 6 0 0 1-5.98-5.505l-1.902-23.001Z" fill="url(#ate)"/><defs><linearGradient id="ata" x1="38.05" y1="21.893" x2="38.05" y2="56.174" gradientUnits="userSpaceOnUse"><stop stop-color="#fff"/><stop offset=".133" stop-color="#CECECE"/></linearGradient><linearGradient id="atb" x1="39.386" y1="24.039" x2="39.386" y2="58.32" gradientUnits="userSpaceOnUse"><stop stop-color="#fff"/><stop offset=".133" stop-color="#C1C1C1"/></linearGradient><linearGradient id="atc" x1="37.31" y1="25.168" x2="37.31" y2="59.449" gradientUnits="userSpaceOnUse"><stop stop-color="#fff"/><stop offset=".133" stop-color="#F3F3F3"/></linearGradient><linearGradient id="atd" x1="39.386" y1="26.974" x2="39.386" y2="61.255" gradientUnits="userSpaceOnUse"><stop stop-color="#fff"/><stop offset="0" stop-color="#F3F3F3"/></linearGradient><linearGradient id="ate" x1="38.05" y1="28.103" x2="38.05" y2="63.104" gradientUnits="userSpaceOnUse"><stop stop-color="#FFD0EF"/><stop offset="1" stop-color="#FFAEE3"/></linearGradient></defs></symbol><symbol fill="none" viewBox="0 0 76 76" id="meeting_room_thumbnail_8" xmlns="http://www.w3.org/2000/svg"><path d="M0 12C0 5.373 5.373 0 12 0h52c6.627 0 12 5.373 12 12v52c0 6.627-5.373 12-12 12H12C5.373 76 0 70.627 0 64V12Z" fill="#DDF9D1"/><rect width="36.683" height="51.162" rx="2" transform="matrix(.959 -.28343 .23606 .97174 14.731 20.192)" fill="#ADDB99"/><g filter="url(#aua)"><rect width="23.517" height="2.033" rx="1.016" transform="matrix(.959 -.28343 .23606 .97174 20.5 26.123)" fill="#D4FCC3"/></g><g filter="url(#aub)"><rect width="28.262" height="2.033" rx="1.016" transform="matrix(.959 -.28343 .23606 .97174 21.91 31.926)" fill="#D4FCC3"/></g><g filter="url(#auc)"><rect width="28.262" height="2.033" rx="1.016" transform="matrix(.959 -.28343 .23606 .97174 26.138 49.334)" fill="#D4FCC3"/></g><g filter="url(#aud)"><rect width="28.262" height="2.033" rx="1.016" transform="matrix(.959 -.28343 .23606 .97174 23.32 37.728)" fill="#D4FCC3"/></g><g filter="url(#aue)"><rect width="28.262" height="2.033" rx="1.016" transform="matrix(.959 -.28343 .23606 .97174 27.548 55.136)" fill="#B7E9A0"/></g><g filter="url(#auf)"><rect width="28.262" height="2.033" rx="1.016" transform="matrix(.959 -.28343 .23606 .97174 24.729 43.531)" fill="#D4FCC3"/></g><g filter="url(#aug)"><rect width="28.262" height="2.033" rx="1.016" transform="matrix(.959 -.28343 .23606 .97174 28.957 60.938)" fill="#B7E9A0"/></g><path d="M15.477 60.583c6.387-14.886 1.546-32.433-.601-38.205-.296-.796.376-2.312 1.19-2.554l32.654-9.702c.43-.128.892.038 1.107.432 5.293 9.675 5.677 37.451-.436 43.842a.896.896 0 0 1-.457.25l-32.282 7.393c-.825.19-1.51-.678-1.175-1.456Z" fill="url(#auh)"/><g filter="url(#aui)"><rect width="15.279" height="1.5" rx=".75" transform="matrix(.96265 -.27075 .22523 .9743 19.996 24.952)" fill="#D4FCC3"/></g><g filter="url(#auj)"><rect width="25.577" height="1.5" rx=".75" transform="matrix(.96592 -.25886 .21925 .97567 20.948 29.718)" fill="#D4FCC3"/></g><g filter="url(#auk)"><rect width="26.729" height="1.5" rx=".75" transform="matrix(.96566 -.25982 .22022 .97545 21.91 33.922)" fill="#D4FCC3"/></g><defs><filter id="aua" x="18.21" y="18.205" width="27.611" height="13.148" filterUnits="userSpaceOnUse" color-interpolation-filters="sRGB"><feFlood flood-opacity="0" result="BackgroundImageFix"/><feColorMatrix in="SourceAlpha" values="0 0 0 0 0 0 0 0 0 0 0 0 0 0 0 0 0 0 127 0" result="hardAlpha"/><feOffset dy="1"/><feGaussianBlur stdDeviation="1.25"/><feComposite in2="hardAlpha" operator="out"/><feColorMatrix values="0 0 0 0 0.666737 0 0 0 0 0.843128 0 0 0 0 0.587361 0 0 0 1 0"/><feBlend in2="BackgroundImageFix" result="effect1_dropShadow_749_25908"/><feBlend in="SourceGraphic" in2="effect1_dropShadow_749_25908" result="shape"/></filter><filter id="aub" x="19.62" y="22.662" width="32.162" height="14.492" filterUnits="userSpaceOnUse" color-interpolation-filters="sRGB"><feFlood flood-opacity="0" result="BackgroundImageFix"/><feColorMatrix in="SourceAlpha" values="0 0 0 0 0 0 0 0 0 0 0 0 0 0 0 0 0 0 127 0" result="hardAlpha"/><feOffset dy="1"/><feGaussianBlur stdDeviation="1.25"/><feComposite in2="hardAlpha" operator="out"/><feColorMatrix values="0 0 0 0 0.666737 0 0 0 0 0.843128 0 0 0 0 0.587361 0 0 0 1 0"/><feBlend in2="BackgroundImageFix" result="effect1_dropShadow_749_25908"/><feBlend in="SourceGraphic" in2="effect1_dropShadow_749_25908" result="shape"/></filter><filter id="auc" x="23.849" y="40.07" width="32.162" height="14.492" filterUnits="userSpaceOnUse" color-interpolation-filters="sRGB"><feFlood flood-opacity="0" result="BackgroundImageFix"/><feColorMatrix in="SourceAlpha" values="0 0 0 0 0 0 0 0 0 0 0 0 0 0 0 0 0 0 127 0" result="hardAlpha"/><feOffset dy="1"/><feGaussianBlur stdDeviation="1.25"/><feComposite in2="hardAlpha" operator="out"/><feColorMatrix values="0 0 0 0 0.666737 0 0 0 0 0.843128 0 0 0 0 0.587361 0 0 0 1 0"/><feBlend in2="BackgroundImageFix" result="effect1_dropShadow_749_25908"/><feBlend in="SourceGraphic" in2="effect1_dropShadow_749_25908" result="shape"/></filter><filter id="aud" x="21.03" y="28.465" width="32.162" height="14.492" filterUnits="userSpaceOnUse" color-interpolation-filters="sRGB"><feFlood flood-opacity="0" result="BackgroundImageFix"/><feColorMatrix in="SourceAlpha" values="0 0 0 0 0 0 0 0 0 0 0 0 0 0 0 0 0 0 127 0" result="hardAlpha"/><feOffset dy="1"/><feGaussianBlur stdDeviation="1.25"/><feComposite in2="hardAlpha" operator="out"/><feColorMatrix values="0 0 0 0 0.666737 0 0 0 0 0.843128 0 0 0 0 0.587361 0 0 0 1 0"/><feBlend in2="BackgroundImageFix" result="effect1_dropShadow_749_25908"/><feBlend in="SourceGraphic" in2="effect1_dropShadow_749_25908" result="shape"/></filter><filter id="aue" x="25.258" y="45.872" width="32.162" height="14.492" filterUnits="userSpaceOnUse" color-interpolation-filters="sRGB"><feFlood flood-opacity="0" result="BackgroundImageFix"/><feColorMatrix in="SourceAlpha" values="0 0 0 0 0 0 0 0 0 0 0 0 0 0 0 0 0 0 127 0" result="hardAlpha"/><feOffset dy="1"/><feGaussianBlur stdDeviation="1.25"/><feComposite in2="hardAlpha" operator="out"/><feColorMatrix values="0 0 0 0 0.666737 0 0 0 0 0.843128 0 0 0 0 0.587361 0 0 0 1 0"/><feBlend in2="BackgroundImageFix" result="effect1_dropShadow_749_25908"/><feBlend in="SourceGraphic" in2="effect1_dropShadow_749_25908" result="shape"/></filter><filter id="auf" x="22.439" y="34.267" width="32.162" height="14.492" filterUnits="userSpaceOnUse" color-interpolation-filters="sRGB"><feFlood flood-opacity="0" result="BackgroundImageFix"/><feColorMatrix in="SourceAlpha" values="0 0 0 0 0 0 0 0 0 0 0 0 0 0 0 0 0 0 127 0" result="hardAlpha"/><feOffset dy="1"/><feGaussianBlur stdDeviation="1.25"/><feComposite in2="hardAlpha" operator="out"/><feColorMatrix values="0 0 0 0 0.666737 0 0 0 0 0.843128 0 0 0 0 0.587361 0 0 0 1 0"/><feBlend in2="BackgroundImageFix" result="effect1_dropShadow_749_25908"/><feBlend in="SourceGraphic" in2="effect1_dropShadow_749_25908" result="shape"/></filter><filter id="aug" x="26.668" y="51.675" width="32.162" height="14.492" filterUnits="userSpaceOnUse" color-interpolation-filters="sRGB"><feFlood flood-opacity="0" result="BackgroundImageFix"/><feColorMatrix in="SourceAlpha" values="0 0 0 0 0 0 0 0 0 0 0 0 0 0 0 0 0 0 127 0" result="hardAlpha"/><feOffset dy="1"/><feGaussianBlur stdDeviation="1.25"/><feComposite in2="hardAlpha" operator="out"/><feColorMatrix values="0 0 0 0 0.666737 0 0 0 0 0.843128 0 0 0 0 0.587361 0 0 0 1 0"/><feBlend in2="BackgroundImageFix" result="effect1_dropShadow_749_25908"/><feBlend in="SourceGraphic" in2="effect1_dropShadow_749_25908" result="shape"/></filter><filter id="aui" x="17.645" y="19.491" width="19.747" height="10.248" filterUnits="userSpaceOnUse" color-interpolation-filters="sRGB"><feFlood flood-opacity="0" result="BackgroundImageFix"/><feColorMatrix in="SourceAlpha" values="0 0 0 0 0 0 0 0 0 0 0 0 0 0 0 0 0 0 127 0" result="hardAlpha"/><feOffset dy="1"/><feGaussianBlur stdDeviation="1.25"/><feComposite in2="hardAlpha" operator="out"/><feColorMatrix values="0 0 0 0 0.666737 0 0 0 0 0.843128 0 0 0 0 0.587361 0 0 0 1 0"/><feBlend in2="BackgroundImageFix" result="effect1_dropShadow_749_25908"/><feBlend in="SourceGraphic" in2="effect1_dropShadow_749_25908" result="shape"/></filter><filter id="auj" x="18.594" y="21.766" width="29.742" height="12.747" filterUnits="userSpaceOnUse" color-interpolation-filters="sRGB"><feFlood flood-opacity="0" result="BackgroundImageFix"/><feColorMatrix in="SourceAlpha" values="0 0 0 0 0 0 0 0 0 0 0 0 0 0 0 0 0 0 127 0" result="hardAlpha"/><feOffset dy="1"/><feGaussianBlur stdDeviation="1.25"/><feComposite in2="hardAlpha" operator="out"/><feColorMatrix values="0 0 0 0 0.666737 0 0 0 0 0.843128 0 0 0 0 0.587361 0 0 0 1 0"/><feBlend in2="BackgroundImageFix" result="effect1_dropShadow_749_25908"/><feBlend in="SourceGraphic" in2="effect1_dropShadow_749_25908" result="shape"/></filter><filter id="auk" x="19.556" y="25.647" width="30.849" height="13.07" filterUnits="userSpaceOnUse" color-interpolation-filters="sRGB"><feFlood flood-opacity="0" result="BackgroundImageFix"/><feColorMatrix in="SourceAlpha" values="0 0 0 0 0 0 0 0 0 0 0 0 0 0 0 0 0 0 127 0" result="hardAlpha"/><feOffset dy="1"/><feGaussianBlur stdDeviation="1.25"/><feComposite in2="hardAlpha" operator="out"/><feColorMatrix values="0 0 0 0 0.666737 0 0 0 0 0.843128 0 0 0 0 0.587361 0 0 0 1 0"/><feBlend in2="BackgroundImageFix" result="effect1_dropShadow_749_25908"/><feBlend in="SourceGraphic" in2="effect1_dropShadow_749_25908" result="shape"/></filter><linearGradient id="auh" x1="33.95" y1="9.905" x2="33.95" y2="62.515" gradientUnits="userSpaceOnUse"><stop stop-color="#A6F483"/><stop offset="1" stop-color="#7CBA61"/></linearGradient></defs></symbol><symbol fill="none" viewBox="0 0 24 24" id="mega_phone" xmlns="http://www.w3.org/2000/svg"><path d="M21.474 14.105a.574.574 0 0 0 .332-.338c.085-.265.194-.795.194-1.767 0-.972-.109-1.5-.194-1.766a.573.573 0 0 0-.332-.339c-.643-.284-2.509-1.07-4.18-1.395 0 0-.294.3-.294 3.5s.294 3.5.294 3.5c1.671-.324 3.537-1.11 4.18-1.395ZM10.432 20.887c-.193.799-.982 1.277-1.75 1.06l-2.135-.602c-.864-.243-1.297-1.244-.896-2.073L7.715 15l3.785 1.468-1.068 4.42Z" fill="#2A62F4"/><path d="M3.739 16.112c-.65-.09-1.21-.5-1.333-1.163-.117-.629-.224-1.58-.224-2.949 0-1.37.107-2.32.224-2.949.123-.662.682-1.073 1.333-1.163 2.419-.335 8.53-1.42 12.854-4.255 1.08-.708 2.425-.36 2.616.941.225 1.53.427 3.89.427 7.426s-.202 5.895-.427 7.426c-.191 1.302-1.535 1.65-2.616.941-4.323-2.834-10.435-3.92-12.854-4.255Z" fill="#9AB5FE"/><path d="M2.434 14.977c.139.669.768 1.083 1.5 1.174.416.052.93.122 1.52.213V7.636c-.59.091-1.104.161-1.52.213-.732.09-1.361.505-1.5 1.174-.131.634-.252 1.595-.252 2.977s.12 2.343.252 2.977Z" fill="#2A62F4"/></symbol><symbol fill="none" viewBox="0 0 24 24" id="memo" xmlns="http://www.w3.org/2000/svg"><path d="M21 11.5v5.1a3.4 3.4 0 0 1-3.4 3.4H7.4A3.4 3.4 0 0 1 4 16.6V6.4A3.4 3.4 0 0 1 7.4 3h5.1m3.133 1.72s0 1.215 1.216 2.43c1.216 1.217 2.432 1.217 2.432 1.217m-9.2 6.524 2.554-.365a1.72 1.72 0 0 0 .972-.486l6.89-6.89a1.72 1.72 0 0 0 0-2.43L19.28 3.503a1.72 1.72 0 0 0-2.432 0l-6.89 6.889a1.72 1.72 0 0 0-.485.972l-.365 2.553a.86.86 0 0 0 .973.973Z" stroke="#7E8799" stroke-width="2" stroke-linecap="round"/></symbol><symbol fill="none" viewBox="0 0 375 649" id="onboarding_background" xmlns="http://www.w3.org/2000/svg"><path d="M375 0H0v618h375V0Z" fill="#5784FD"/><path d="M0 436.803 375 399v250H0V436.803Z" fill="#fff"/><path d="M218.2 330.914 305.8 253l69.212 38.967v239.43L278.2 559.861-.01 645.317v-261.82l30.409-20.342L218.2 330.914ZM61.41 128.715v24.719h-3.035v-24.719h3.035ZM40.93 146.57c1.968-.013 4.197-.013 6.535-.082v-2.269c-2.776-.438-4.594-2.133-4.594-4.485 0-2.789 2.475-4.634 6.07-4.648 3.637.014 6.153 1.859 6.153 4.648 0 2.338-1.819 4.02-4.594 4.471v2.174a74.708 74.708 0 0 0 6.426-.547l.218 2.27c-5.427.916-11.334.984-15.777.984l-.437-2.516Zm.52-12.605v-2.406h6.015v-2.762H50.5v2.762h5.988v2.406H41.45Zm4.32 5.769c-.028 1.422 1.298 2.256 3.171 2.243 1.928.013 3.24-.821 3.227-2.243.014-1.435-1.299-2.31-3.227-2.324-1.873.014-3.199.889-3.172 2.324Zm26.541-9.296c3.924-.014 6.781 2.46 6.809 5.96-.028 3.514-2.885 5.975-6.809 5.989-3.883-.014-6.795-2.475-6.781-5.989-.014-3.5 2.898-5.974 6.781-5.96Zm-7.902 15.367c4.457 0 10.623-.055 15.969-.821l.246 2.215c-5.537 1.053-11.471 1.094-15.832 1.094l-.383-2.488Zm4.129-9.407c-.014 2.065 1.613 3.336 3.773 3.336 2.188 0 3.815-1.271 3.828-3.336-.013-2.05-1.627-3.336-3.828-3.336-2.16 0-3.787 1.286-3.773 3.336Zm13.316 17.063v-24.746h3.035v24.746h-3.035Zm21.201-18.813c-.027 4.54 2.365 9.079 6.371 10.801l-1.805 2.434c-2.843-1.313-4.922-3.924-6.07-7.151-1.135 3.473-3.268 6.317-6.262 7.725l-1.86-2.543c4.116-1.777 6.522-6.494 6.536-11.266v-3.937h3.09v3.937Zm8.148 18.813v-24.746h3.063v24.746h-3.063Zm25.476-24.746v7.109h3.445v2.543h-3.445v8.176h-3.09v-17.828h3.09ZM117.1 141.566c5.661-1.64 9.01-4.716 9.53-8.476h-8.49v-2.488h11.812c.014 6.562-4.279 11.252-11.594 13.371l-1.258-2.407Zm3.692 11.375v-8.23h3.09v5.769h13.726v2.461h-16.816Zm-58.644 15.774v24.719h-2.925v-12.661h-2.625v11.457h-2.871v-23.078h2.87v9.106h2.626v-9.543h2.925Zm-20.562 18.347v-15.667h9.707v15.667h-9.707Zm2.844-2.406h4.02v-10.855h-4.02v10.855Zm40.487-15.941v24.719h-3.008v-24.719h3.008ZM65.72 187.227v-16.106h3.008v13.508c3.46-.055 7.15-.356 10.965-1.121l.383 2.543c-4.348.902-8.381 1.189-12.223 1.176h-2.133Zm42.648-18.485v14.738h-3.063v-14.738h3.063ZM87.97 180.801c3.992-1.326 6.098-4.526 6.125-7.821v-.027h-5.332v-2.461h13.59v2.461h-5.195v.027c0 3.049 2.105 5.975 6.043 7.192l-1.559 2.379c-2.789-.875-4.826-2.694-5.947-5.004-1.108 2.584-3.2 4.662-6.139 5.66l-1.586-2.406Zm3.582 7.929c0-3.007 3.213-4.757 8.449-4.757 5.209 0 8.422 1.75 8.422 4.757 0 3.022-3.213 4.745-8.422 4.731-5.236.014-8.449-1.709-8.449-4.731Zm3.063 0c0 1.545 1.914 2.393 5.386 2.379 3.446.014 5.428-.834 5.442-2.379-.014-1.517-1.996-2.378-5.442-2.378-3.472 0-5.386.861-5.386 2.378Zm-44.662 25.918c-.014 4.594 2.188 9.106 6.125 10.829l-1.832 2.433c-2.789-1.367-4.758-3.992-5.81-7.232-1.08 3.418-3.104 6.261-5.948 7.697l-1.914-2.461c4.033-1.887 6.276-6.644 6.29-11.266v-3.937h3.09v3.937Zm3.39 4.512v-2.461h5.196v-7.984h3.008v24.746h-3.008V219.16h-5.195Zm31.519-10.445v24.746h-3.063v-24.746h3.063Zm-19.25 18.922v-16.899h3.035v6.18h5.988v-6.18h3.008v16.899H65.612Zm3.035-2.489h5.988v-5.851h-5.988v5.851Zm31.901-13.043c0 3.815 3.733 7.657 8.914 8.559l-1.367 2.543c-4.142-.861-7.533-3.377-9.146-6.699-1.627 3.295-5.018 5.824-9.147 6.699l-1.34-2.543c5.1-.93 8.846-4.758 8.86-8.559v-1.832h3.226v1.832Zm-12.77 18.184v-2.516h22.587v2.516H87.779Z" fill="#fff"/><path d="m177.399 533.666-147-170.5L.001 383.5V589l177.398-55.334Z" fill="url(#bia)"/><path d="m218.5 330.5 87-77.5 69.5 39v156.5l-156.5-118Z" fill="url(#bib)"/><path d="M337.798 453.702c3.226 25.763-64.486 53.397-145.685 68.187-15.129 2.756-25.59 6.665-31.108 8.904-98.103 39.807-127.243 38.096-138.833 7.672-3.38-25.112 13.153-76.37 85.464-107.431 15.011-3.173 30.925-5.858 47.457-7.928 97.264-12.179 179.065 1.519 182.705 30.596Z" fill="url(#bic)"/><path d="M331.691 401.998c.117-.202.153-.237.147-.261l-.335-1.353c-1.04-4.215-2.984-7.96-5.945-11.106a111.923 111.923 0 0 0-6.778-6.618c-1.169-1.051-2.556-1.929-3.977-2.6-2.55-1.199-5.152-2.214-8.065-2.351-1.716-.083-3.272.226-4.858.707-.5.154-1.011.267-1.516.403.905-1.507 2.215-2.594 3.742-3.348 3.695-1.828 7.437-3.567 11.507-4.386 1.845-.368 3.725-.968 5.557-.867 7.719.434 14.333 3.182 19.185 9.64 2.32 3.093 4.182 6.351 5.181 10.079 1.004 3.751.464 7.378-1.181 10.844-.569 1.205-1.427 2.179-2.672 2.737-1.633.73-3.266 1.466-4.899 2.196-.57.255-1.14.516-1.851.849" fill="#CDD6E1"/><path d="M300.497 378.785c.507-.13 1.019-.248 1.52-.402 1.59-.48 3.151-.787 4.871-.705 2.916.143 5.532 1.149 8.088 2.345 1.426.669 2.816 1.545 3.988 2.593a111.719 111.719 0 0 1 6.798 6.6c2.969 3.132 4.919 6.867 5.961 11.076.112.45.23.9.336 1.35 0 .023-.029.053-.147.26-.436-.408-.884-.752-1.249-1.178-2.798-3.309-6.185-5.937-9.655-8.471-4.73-3.451-9.855-6.222-15.121-8.738-2.162-1.03-4.389-1.918-6.58-2.9-.3-.136-.542-.421-.807-.634.619-.331 1.237-.663 1.856-1 .047-.071.1-.136.147-.207h-.006v.011Z" fill="#ABB6BF"/><path d="m338.29 452.778 1.229-35.776-10.287 16.625c-18.678-19.741-64.105-33.291-117.013-32.635-53.25.661-98.57 15.522-116.527 35.918l-9.732-14.581 1.483 34.155v.102c.006.518.035 1.037.071 1.549v.042c2.304 29.09 57.977 51.745 126.017 50.904 66.923-.828 121.326-24.09 124.617-52.579v-.041c.112-.99.165-1.985.154-2.98 0-.232-.018-.47-.03-.703h.018Z" fill="#353C49"/><path d="m288.247 408.427-7.458.932" stroke="#DEE7FF" stroke-miterlimit="10" stroke-linecap="round"/><path d="M212.271 470.885c65.642 0 118.855-22.746 118.855-50.805 0-28.058-53.213-50.805-118.855-50.805S93.415 392.022 93.415 420.08c0 28.059 53.214 50.805 118.856 50.805Z" fill="#fff"/><path d="M265.494 448.834c-14.419 4.108-31.943 6.634-50.856 6.873-49.531.638-89.869-14.606-90.098-34.043-.228-19.438 39.741-35.712 89.272-36.35 26.365-.337 50.123 3.82 66.616 10.712" stroke="#E4EAFC" stroke-width="2" stroke-miterlimit="10"/><path d="M288.844 395.625c12.309 6.458 19.649 14.567 19.757 23.452.173 14.536-19.065 27.494-47.894 34.772L203.424 414.6l85.426-18.975h-.006Z" fill="#FFE6CE"/><path d="M284.629 397.503c11.431 5.932 18.243 13.384 18.336 21.552.158 13.365-17.712 25.278-44.487 31.976l-53.177-36.054 79.328-17.474Z" stroke="#F6BB92" stroke-width="2" stroke-miterlimit="10"/><path d="M329.461 421.882s.457-12.695-9.102-20.71c-9.559-8.015-30.565-25.408-91.261-29.04-60.696-3.633-103.574 15.763-119.177 27.912-15.93 12.41-14.184 25.631-14.184 25.631l-4.067-10.389 17.408-25.209 62.323-23.518 63.451-2.864 56.712 12.019 29.199 16.123 13.192 17.003-1.965 11.102-2.529 1.94Z" fill="#ABB6BF"/><path d="M217.567 365.664c31.286 0 60.427 5.63 82.064 15.853 19.014 8.989 30.045 20.631 30.264 31.947.467 23.798-47.103 51.377-116.098 52.893-1.908.043-3.835.061-5.731.061-31.286 0-60.433-5.631-82.064-15.853-19.014-8.984-30.046-20.632-30.264-31.948-.23-11.726 10.984-24.178 30.766-34.164 22.506-11.364 52.817-18.016 85.337-18.729 1.903-.042 3.835-.06 5.726-.06h.012Zm-.006-6.664c-1.968 0-3.947.018-5.932.06-70.017 1.493-126.243 28.951-125.587 61.334.638 31.464 54.731 55.992 122.024 55.992 1.967 0 3.947-.018 5.932-.06 70.017-1.492 126.243-28.951 125.587-61.333C338.947 383.528 284.854 359 217.561 359Z" fill="#CDD6E1"/><path d="m213.524 412.529 73.849-15.183c.575-.118 1.109-.48 1.367-1.041.158-.337.194-2.059.047-2.558l-75.974 16.231.711 2.551Z" fill="#ABB6BF"/><path d="m212.813 410.644 74.996-16.175c1.281-.277 1.463-2.23.27-2.811a6.72 6.72 0 0 0-1.31-.455c-1.493-.37-3.045-.35-4.549-.027l-69.183 14.301-.218 5.174-.006-.007Z" fill="#CDD6E1"/><path d="m212.813 419.096 75.086-15.274c1.283-.261 1.236-1.732.271-2.654-.271-.262-.818-.561-1.359-.686-1.495-.349-3.001-.068-4.508.231l-69.266 13.504-.218 4.885-.006-.006Z" fill="#F6BB92"/><path d="m207.279 416.284 56.273 35.492c1.184.683 1.225 2.426.065 3.157l.03-.018c-1.479.939-4.391 1.134-5.882.207l-56.22-37.899s3.893.073 5.728-.939h.006Z" fill="#DEE7FF"/><path d="M214.2 414.695h-16.679l-.32-8.56h17.325l-.326 8.56Z" fill="#ABB6BF"/><path d="M214.526 406.132c0 2.182-3.879 3.953-8.663 3.953-4.784 0-8.662-1.771-8.662-3.953s3.878-4.582 8.662-4.582c4.784 0 8.663 2.4 8.663 4.582Z" fill="#CDD6E1"/><path d="M214.199 414.694c0 1.702-3.737 3.734-8.337 3.734-4.601 0-8.337-2.032-8.337-3.734s3.736-3.074 8.337-3.074c4.6 0 8.337 1.378 8.337 3.074ZM268.989 453.684s-.011.006-.017.012l-.012.012.029-.018v-.006Z" fill="#ABB6BF"/><path d="m269.798 450.323-.355.686a1.821 1.821 0 0 0-.557-.536l-58.475-35.749c-1.841 1.028-5.299.972-5.299.972l57.989 38.206c1.486.941 4.376.748 5.862-.2.533-.349.799-1.119.823-1.698h.012v-1.681Z" fill="#ABB6BF"/><path d="m263.078 446.647-.004 1.703-.928.162.932-1.865Z" fill="#ABB6BF"/><path d="m211.969 412.527 57.218 36.27c1.183.711 1.224 2.525.066 3.286l.029-.019c-1.478.977-4.387 1.18-5.877.216l-57.165-38.776s3.89.076 5.723-.977h.006Z" fill="#CDD6E1"/><path d="m302.966 420.98-9.391-1.878" stroke="#F6BB92" stroke-width="2" stroke-miterlimit="10" stroke-linecap="round"/><path d="m291.042 403.766-6.157.932" stroke="#F6BB92" stroke-width="2" stroke-miterlimit="10"/><path d="m286.062 440.701-8.452-5.635" stroke="#F6BB92" stroke-width="2" stroke-miterlimit="10" stroke-linecap="round"/><path d="m242.864 453.848-5.635-8.452M189.336 454.787l4.695-9.391M131.113 433.187l10.33-2.817M132.99 406.894l10.33 1.878M156.469 394.686l8.452 2.817M191.215 387.173l2.817 3.756M228.777 386.233l-2.817 3.757" stroke="#E4EAFC" stroke-width="2" stroke-miterlimit="10" stroke-linecap="round"/><g filter="url(#bid)"><path d="m228.039 291.833 18.962-16.333 16.5 15.499 29.5 18.36-18.961 17.64-29.539-19.5-16.462-15.666Z" fill="#fff" fill-opacity=".3"/></g><g filter="url(#bie)"><path d="m263.5 291 29.501 18.359-18.961 17.64L244.5 307.5l19-16.5Z" fill="#fff" fill-opacity=".3" shape-rendering="crispEdges"/></g><path d="M42.436 257.16v-5.18h23.828v5.18h-8.82V272h-6.16v-14.84h-8.848Zm33.935-5.18V272h-6.16v-20.02h6.16Zm3.6 0h11.06l5.264 11.256c.168.364.224 2.408.477 2.408.251 0 .307-2.044.475-2.408l5.264-11.256h10.5V272h-6.16v-13.972c0-.616.28-1.176.28-1.596 0-.112-.056-.168-.168-.168-.196 0-.42.616-.56.924L99.291 272h-5.04l-7.672-14.868c-.14-.308-.363-.924-.56-.924-.14 0-.168.084-.168.224 0 .336.28.952.28 1.54V272h-6.16v-20.02ZM117.133 272v-20.02h21.56v4.844h-15.4v2.772h14.7v4.816h-14.7v2.744h15.4V272h-21.56Zm25.145 0v-20.02h21.56v4.844h-15.4v2.772h14.7v4.816h-14.7v2.744h15.4V272h-21.56Zm25.368-14.84v-5.18h23.828v5.18h-8.82V272h-6.16v-14.84h-8.848Z" fill="#fff"/><defs><linearGradient id="bia" x1="100.65" y1="358.666" x2="100.65" y2="587.166" gradientUnits="userSpaceOnUse"><stop stop-color="#F3F7FF"/><stop offset="1" stop-color="#F3F7FF" stop-opacity="0"/></linearGradient><linearGradient id="bib" x1="264" y1="310.5" x2="414" y2="383.5" gradientUnits="userSpaceOnUse"><stop stop-color="#F2F7FF"/><stop offset="1" stop-color="#F6F9FF" stop-opacity="0"/></linearGradient><linearGradient id="bic" x1="161.66" y1="483.643" x2="47.691" y2="551.252" gradientUnits="userSpaceOnUse"><stop stop-color="#E4E9EF"/><stop offset="1" stop-color="#E4E9EF" stop-opacity=".3"/></linearGradient><filter id="bid" x="224.039" y="271.5" width="72.962" height="59.499" filterUnits="userSpaceOnUse" color-interpolation-filters="sRGB"><feFlood flood-opacity="0" result="BackgroundImageFix"/><feGaussianBlur in="BackgroundImageFix" stdDeviation="2"/><feComposite in2="SourceAlpha" operator="in" result="effect1_backgroundBlur_1181_17350"/><feBlend in="SourceGraphic" in2="effect1_backgroundBlur_1181_17350" result="shape"/></filter><filter id="bie" x="240.5" y="287" width="56.501" height="43.999" filterUnits="userSpaceOnUse" color-interpolation-filters="sRGB"><feFlood flood-opacity="0" result="BackgroundImageFix"/><feGaussianBlur in="BackgroundImageFix" stdDeviation="2"/><feComposite in2="SourceAlpha" operator="in" result="effect1_backgroundBlur_1181_17350"/><feColorMatrix in="SourceAlpha" values="0 0 0 0 0 0 0 0 0 0 0 0 0 0 0 0 0 0 127 0" result="hardAlpha"/><feOffset/><feGaussianBlur stdDeviation="2"/><feComposite in2="hardAlpha" operator="out"/><feColorMatrix values="0 0 0 0 0.838188 0 0 0 0 0.85164 0 0 0 0 0.887809 0 0 0 1 0"/><feBlend in2="effect1_backgroundBlur_1181_17350" result="effect2_dropShadow_1181_17350"/><feBlend in="SourceGraphic" in2="effect2_dropShadow_1181_17350" result="shape"/></filter></defs></symbol><symbol fill="none" viewBox="0 0 18 18" id="pencil" xmlns="http://www.w3.org/2000/svg"><path fill-rule="evenodd" clip-rule="evenodd" d="m9.419 4.693-6.042 6.042-.824 3.073-.542 2.025a.334.334 0 0 0 .409.408l2.023-.542 3.074-.824 6.042-6.042-4.14-4.14Zm6.638.7L12.86 2.195a.666.666 0 0 0-.943 0l-1.65 1.65 4.14 4.14 1.65-1.65a.665.665 0 0 0 0-.942" fill="#7E8799"/></symbol><symbol fill="none" viewBox="0 0 31 30" id="play" xmlns="http://www.w3.org/2000/svg"><rect x=".5" width="30" height="30" rx="15" fill="#5C6988"/><path d="M20.396 14.112a1 1 0 0 1 0 1.732l-6.628 3.827a1 1 0 0 1-1.5-.866V11.15a1 1 0 0 1 1.5-.866l6.628 3.827Z" fill="#fff"/></symbol><symbol fill="none" viewBox="0 0 31 30" id="play_disabled" xmlns="http://www.w3.org/2000/svg"><rect x=".5" width="30" height="30" rx="15" fill="#E7EBEF"/><path d="M20.396 14.112a1 1 0 0 1 0 1.732l-6.628 3.827a1 1 0 0 1-1.5-.866V11.15a1 1 0 0 1 1.5-.866l6.628 3.827Z" fill="#989FAE"/></symbol><symbol fill="none" viewBox="0 0 12 13" id="plus" xmlns="http://www.w3.org/2000/svg"><path d="M1.164 6.662h10M6.164 11.662v-10" stroke="#5784FD" stroke-width="1.5" stroke-linecap="round" stroke-linejoin="round"/></symbol><symbol fill="none" viewBox="0 0 24 24" id="share" xmlns="http://www.w3.org/2000/svg"><path d="M5 14v4a2 2 0 0 0 2 2h10a2 2 0 0 0 2-2v-4M12 15V5M7 9l5-5 5 5" stroke="#7E8799" stroke-width="2" stroke-linecap="round" stroke-linejoin="round"/></symbol><symbol fill="none" viewBox="0 0 18 18" id="star" xmlns="http://www.w3.org/2000/svg"><g clip-path="url(#bca)"><path d="M8.094 4.303c.1-1.225 1.894-1.225 1.994 0l.155 1.912a1 1 0 0 0 1.227.892l1.866-.443c1.196-.285 1.751 1.422.616 1.895l-1.77.738a1 1 0 0 0-.469 1.444l.998 1.637c.64 1.05-.812 2.105-1.613 1.172L9.85 12.095a1 1 0 0 0-1.518 0L7.083 13.55c-.8.933-2.253-.122-1.612-1.172l.998-1.637a1 1 0 0 0-.47-1.444L4.23 8.56c-1.134-.473-.58-2.18.617-1.895l1.865.443a1 1 0 0 0 1.228-.892l.155-1.912Z" fill="#7E8799"/></g><defs><clipPath id="bca"><path fill="#fff" d="M0 0h18v18H0z"/></clipPath></defs></symbol><symbol fill="none" viewBox="0 0 18 19" id="star_orange" xmlns="http://www.w3.org/2000/svg"><g clip-path="url(#bda)"><path d="M8.094 4.87c.1-1.226 1.894-1.226 1.994 0l.155 1.911a1 1 0 0 0 1.227.892l1.866-.443c1.196-.284 1.751 1.423.616 1.896l-1.77.738a1 1 0 0 0-.469 1.443l.998 1.637c.64 1.05-.812 2.105-1.613 1.172L9.85 12.661a1 1 0 0 0-1.518 0l-1.249 1.455c-.8.934-2.253-.121-1.612-1.171l.998-1.638a1 1 0 0 0-.47-1.443l-1.77-.738c-1.134-.473-.58-2.18.617-1.896l1.865.443a1 1 0 0 0 1.228-.892l.155-1.911Z" fill="#FF993C"/></g><defs><clipPath id="bda"><path fill="#fff" transform="translate(0 .566)" d="M0 0h18v18H0z"/></clipPath></defs></symbol><symbol fill="none" viewBox="0 0 20 20" id="warning" xmlns="http://www.w3.org/2000/svg"><path fill="#FF993C" d="M8 3h4v13H8z"/><path fill-rule="evenodd" clip-rule="evenodd" d="M10 14.653a1.09 1.09 0 1 1 0-2.182 1.09 1.09 0 0 1 0 2.182Zm-.91-8.941a.91.91 0 1 1 1.82 0v4.545a.909.909 0 0 1-1.82 0V5.712ZM10 0C4.477 0 0 4.477 0 10c0 5.524 4.477 10 10 10s10-4.476 10-10c0-5.523-4.477-10-10-10Z" fill="#fff"/></symbol><symbol fill="none" viewBox="0 0 24 24" id="x" xmlns="http://www.w3.org/2000/svg"><path d="m18.75 5.25-13.5 13.5M18.75 18.75 5.25 5.25" stroke="#7E8799" stroke-width="2" stroke-linecap="round" stroke-linejoin="round"/></symbol><symbol fill="none" viewBox="0 0 24 24" id="x_circle" xmlns="http://www.w3.org/2000/svg"><path fill-rule="evenodd" clip-rule="evenodd" d="M16.207 14.793a1 1 0 0 1-1.414 1.414L12 13.414l-2.793 2.793a.997.997 0 0 1-1.631-.324 1 1 0 0 1 .217-1.09L10.586 12 7.793 9.207a1 1 0 0 1 1.414-1.414L12 10.586l2.793-2.793a1 1 0 1 1 1.414 1.414L13.414 12l2.793 2.793ZM12 1C5.925 1 1 5.925 1 12s4.925 11 11 11 11-4.925 11-11S18.075 1 12 1Z" fill="#7E8799"/></symbol></svg>