<svg width="375" height="414" viewBox="0 0 375 414" fill="none" xmlns="http://www.w3.org/2000/svg">
<path d="M65.4653 278.249L168.164 161.798C171.918 157.541 178.273 156.817 182.852 160.125L307.593 250.234L65.4653 278.249Z" fill="#C7CCD6"/>
<path d="M65.5273 278.242L307.605 250.232L195.569 341.522L65.5273 278.242Z" fill="#7E8799"/>
<path d="M-0.138672 0.000354886L374.907 0V138.508L292.26 276.872C291.792 277.655 290.993 278.183 290.089 278.306L81.9434 306.616C80.2534 306.846 78.6035 305.979 77.8343 304.457L0.000543088 150.444L-0.138672 0.000354886Z" fill="url(#paint0_linear_883_19104)"/>
<path d="M263.759 200.217L94.9342 219.751C89.448 220.386 85.5151 225.348 86.1499 230.834L100.799 357.444C101.434 362.93 106.396 366.863 111.882 366.228L280.707 346.694C286.194 346.059 290.126 341.097 289.492 335.611L274.842 209.001C274.207 203.515 269.245 199.582 263.759 200.217Z" fill="white"/>
<path d="M65.4163 279.28L322.629 382.722L322.939 385.433L80.72 413.459L65.4163 279.28Z" fill="#F6F7F9"/>
<path d="M307.477 250.046L193.985 330.732L322.653 382.873L307.477 250.046Z" fill="#E7EBEF"/>
<path d="M142.145 257.953C141.794 256.529 140.65 255.737 139.08 255.928C137.012 256.158 135.925 257.886 136.241 260.622C136.569 263.454 138.039 264.779 140.057 264.545C141.571 264.37 142.524 263.434 142.617 262.027L145.956 261.66C145.984 264.194 144.138 267.022 140.336 267.462C136.533 267.902 133.399 265.63 132.865 261.012C132.329 256.375 134.921 253.46 138.666 253.027C142.032 252.638 144.746 254.26 145.482 257.567L142.145 257.953ZM160.208 257.849C160.753 262.475 158.133 265.403 154.369 265.838C150.585 266.276 147.392 264.001 146.859 259.393C146.323 254.756 148.915 251.841 152.698 251.403C156.462 250.968 159.681 253.21 160.208 257.849ZM150.235 259.003C150.559 261.796 151.985 263.165 154.032 262.928C156.089 262.69 157.165 261.032 156.832 258.239C156.518 255.444 155.091 254.066 153.035 254.314C150.987 254.541 149.912 256.209 150.235 259.003ZM172.671 249.289L174.297 263.336L171.483 263.661L164.825 256.076L164.728 256.087L165.682 264.333L162.384 264.714L160.759 250.667L163.611 250.337L170.211 257.93L170.327 257.916L169.373 249.671L172.671 249.289ZM183.975 252.621C183.519 251.485 182.487 250.896 181.101 251.066C179.034 251.296 177.906 253.019 178.221 255.745C178.539 258.49 179.973 259.927 182.098 259.681C183.97 259.464 184.904 258.363 184.777 256.834L181.944 257.162L181.663 254.737L187.678 254.041L187.891 255.884C188.324 259.629 186.014 262.177 182.415 262.593C178.399 263.058 175.364 260.617 174.85 256.174C174.319 251.586 176.952 248.597 180.687 248.165C183.927 247.79 186.648 249.471 187.331 252.233L183.975 252.621ZM189.965 261.523L188.34 247.476L194.082 246.812C197.245 246.446 199.402 248.015 199.724 250.878C199.958 252.817 199.225 254.298 197.755 255.185L201.315 260.21L197.687 260.63L194.547 256.097L192.704 256.31L193.263 261.141L189.965 261.523ZM192.399 253.672L194.145 253.47C195.708 253.299 196.462 252.592 196.309 251.273C196.157 249.953 195.256 249.389 193.694 249.57L191.948 249.772L192.399 253.672ZM204.987 259.785L201.417 260.198L204.565 245.599L208.95 245.091L215.328 258.588L211.778 258.999L210.479 256.102L205.59 256.668L204.987 259.785ZM206.094 254.053L209.392 253.672L207.217 248.811L207.101 248.825L206.094 254.053ZM212.682 247.393L212.37 244.696L224.186 243.329L224.498 246.025L220.229 246.519L221.542 257.869L218.264 258.249L216.95 246.899L212.682 247.393ZM233.307 246.5C233.102 245.492 232.275 244.968 230.926 245.124C229.588 245.279 228.966 245.941 229.049 246.738C229.13 247.613 230.033 247.941 231.326 248.067L232.582 248.216C235.357 248.495 237.084 249.661 237.355 251.911C237.652 254.57 235.771 256.41 232.28 256.824C228.777 257.219 226.335 255.909 225.903 252.685L229.085 252.317C229.319 253.666 230.419 254.247 231.923 254.073C233.319 253.911 234.083 253.204 233.998 252.299C233.884 251.487 233.117 251.143 231.525 250.973L230.01 250.795C227.529 250.511 225.906 249.48 225.661 247.365C225.349 244.757 227.447 242.755 230.629 242.386C233.869 242.011 236.159 243.536 236.489 246.132L233.307 246.5ZM241.134 241.368L241.972 251.16L239.198 251.481L237.778 241.756L241.134 241.368ZM239.144 254.24C239.014 253.292 239.729 252.423 240.69 252.311C241.621 252.204 242.536 252.884 242.655 253.834C242.759 254.815 242.025 255.696 241.094 255.804C240.134 255.915 239.237 255.222 239.144 254.24Z" fill="#5784FD"/>
<linearGradient id="paint0_linear_883_19104" x1="169.256" y1="364.371" x2="168.228" y2="0.434174" gradientUnits="userSpaceOnUse">
<stop stop-color="#E6ECFF"/>
<stop offset="1" stop-color="#E4EAFC" stop-opacity="0"/>
</linearGradient>
</svg>
